<svg width="390" height="331" viewBox="0 0 390 331" fill="none" xmlns="http://www.w3.org/2000/svg">
<g filter="url(#filter0_d_81_18085)">
<rect x="111.176" y="10" width="167.646" height="274.4" rx="17.0204" fill="#1F2325"/>
<path d="M220.759 220.496C220.146 220.496 219.617 220.363 219.172 220.096C218.729 219.83 218.388 219.457 218.146 218.977C217.908 218.498 217.789 217.94 217.789 217.305C217.789 216.669 217.908 216.112 218.146 215.633C218.388 215.153 218.729 214.78 219.172 214.514C219.617 214.247 220.146 214.114 220.759 214.114C221.372 214.114 221.899 214.247 222.342 214.514C222.787 214.78 223.129 215.153 223.367 215.633C223.609 216.112 223.729 216.669 223.729 217.305C223.729 217.94 223.609 218.498 223.367 218.977C223.129 219.457 222.787 219.83 222.342 220.096C221.899 220.363 221.372 220.496 220.759 220.496ZM220.759 219.407C221.148 219.413 221.471 219.329 221.729 219.156C221.987 218.983 222.18 218.737 222.308 218.42C222.438 218.102 222.504 217.73 222.504 217.305C222.504 216.879 222.438 216.511 222.308 216.199C222.18 215.886 221.987 215.644 221.729 215.471C221.471 215.298 221.148 215.209 220.759 215.203C220.37 215.197 220.047 215.281 219.789 215.454C219.531 215.627 219.336 215.872 219.206 216.19C219.078 216.508 219.014 216.879 219.014 217.305C219.014 217.73 219.078 218.099 219.206 218.411C219.336 218.723 219.531 218.966 219.789 219.139C220.047 219.312 220.37 219.401 220.759 219.407ZM227.157 213.731C226.907 213.731 226.681 213.67 226.476 213.548C226.272 213.426 226.109 213.263 225.987 213.058C225.865 212.854 225.804 212.627 225.804 212.377H226.698C226.698 212.505 226.742 212.614 226.829 212.705C226.92 212.793 227.029 212.837 227.157 212.837C227.285 212.837 227.393 212.793 227.481 212.705C227.571 212.614 227.617 212.505 227.617 212.377H228.51C228.51 212.627 228.449 212.854 228.327 213.058C228.205 213.263 228.042 213.426 227.838 213.548C227.634 213.67 227.407 213.731 227.157 213.731ZM227.132 220.496C226.746 220.496 226.378 220.428 226.03 220.292C225.681 220.153 225.371 219.949 225.102 219.679C224.835 219.41 224.624 219.076 224.468 218.679C224.315 218.282 224.238 217.824 224.238 217.305C224.238 216.627 224.367 216.051 224.625 215.577C224.886 215.101 225.235 214.738 225.672 214.488C226.112 214.238 226.598 214.114 227.132 214.114C227.92 214.114 228.54 214.297 228.991 214.662C229.442 215.028 229.744 215.546 229.897 216.216L228.714 216.386C228.604 216.028 228.422 215.743 228.17 215.53C227.92 215.315 227.6 215.206 227.208 215.203C226.82 215.197 226.496 215.281 226.238 215.454C225.98 215.627 225.786 215.872 225.655 216.19C225.527 216.508 225.464 216.879 225.464 217.305C225.464 217.73 225.527 218.099 225.655 218.411C225.786 218.723 225.98 218.966 226.238 219.139C226.496 219.312 226.82 219.401 227.208 219.407C227.472 219.413 227.71 219.367 227.923 219.271C228.139 219.174 228.32 219.023 228.468 218.815C228.615 218.608 228.72 218.343 228.783 218.02H227.812V217.126H230.017C230.022 217.163 230.026 217.228 230.029 217.322C230.032 217.415 230.034 217.469 230.034 217.484C230.034 218.071 229.914 218.591 229.676 219.045C229.438 219.499 229.102 219.855 228.668 220.113C228.234 220.369 227.722 220.496 227.132 220.496ZM233.38 220.496C232.886 220.496 232.452 220.397 232.078 220.198C231.703 219.997 231.411 219.715 231.201 219.352C230.991 218.988 230.886 218.562 230.886 218.071V214.25L232.061 214.241V218.062C232.061 218.264 232.095 218.447 232.163 218.611C232.231 218.776 232.325 218.918 232.444 219.037C232.566 219.156 232.706 219.248 232.865 219.313C233.027 219.376 233.198 219.407 233.38 219.407C233.567 219.407 233.74 219.374 233.899 219.309C234.061 219.244 234.201 219.152 234.32 219.032C234.439 218.913 234.532 218.771 234.597 218.607C234.665 218.442 234.699 218.261 234.699 218.062V214.241H235.873V218.071C235.873 218.562 235.768 218.988 235.558 219.352C235.349 219.715 235.056 219.997 234.682 220.198C234.307 220.397 233.873 220.496 233.38 220.496ZM236.891 220.369V220.224L239.802 215.322H237.146V214.241H241.827V214.386L238.933 219.279H241.742V220.369H236.891ZM247.434 213.594V212.573H248.455V213.594H247.434ZM245.63 213.594V212.573H246.651V213.594H245.63ZM247.043 220.496C246.549 220.496 246.115 220.397 245.741 220.198C245.366 219.997 245.074 219.715 244.864 219.352C244.654 218.988 244.549 218.562 244.549 218.071V214.25L245.724 214.241V218.062C245.724 218.264 245.758 218.447 245.826 218.611C245.894 218.776 245.987 218.918 246.107 219.037C246.229 219.156 246.369 219.248 246.528 219.313C246.69 219.376 246.861 219.407 247.043 219.407C247.23 219.407 247.403 219.374 247.562 219.309C247.724 219.244 247.864 219.152 247.983 219.032C248.102 218.913 248.194 218.771 248.26 218.607C248.328 218.442 248.362 218.261 248.362 218.062V214.241H249.536V218.071C249.536 218.562 249.431 218.988 249.221 219.352C249.011 219.715 248.719 219.997 248.345 220.198C247.97 220.397 247.536 220.496 247.043 220.496ZM250.724 220.369V214.241H251.899L254.562 218.326V214.241H255.737V220.369H254.562L251.899 216.284V220.369H250.724ZM256.498 220.369L258.371 214.241H260.098L261.97 220.369H260.779L259.111 214.965H259.332L257.69 220.369H256.498ZM257.622 219.092V218.011H260.856V219.092H257.622ZM262.818 220.369V214.241H263.976V219.288H266.614V220.369H262.818Z" fill="#CFD0D3"/>
<path d="M245.218 234.592C244.764 234.592 244.367 234.496 244.027 234.306C243.686 234.116 243.421 233.851 243.231 233.511C243.041 233.17 242.946 232.773 242.946 232.319V230.481C242.946 230.027 243.041 229.63 243.231 229.29C243.421 228.949 243.686 228.684 244.027 228.494C244.367 228.304 244.764 228.209 245.218 228.209C245.672 228.209 246.069 228.304 246.41 228.494C246.75 228.684 247.015 228.949 247.205 229.29C247.395 229.63 247.49 230.027 247.49 230.481V232.319C247.49 232.773 247.395 233.17 247.205 233.511C247.015 233.851 246.75 234.116 246.41 234.306C246.069 234.496 245.672 234.592 245.218 234.592ZM245.218 233.494C245.422 233.494 245.607 233.445 245.771 233.349C245.936 233.253 246.066 233.122 246.163 232.958C246.259 232.793 246.307 232.609 246.307 232.404V230.387C246.307 230.183 246.259 229.999 246.163 229.834C246.066 229.67 245.936 229.539 245.771 229.443C245.607 229.346 245.422 229.298 245.218 229.298C245.014 229.298 244.83 229.346 244.665 229.443C244.5 229.539 244.37 229.67 244.274 229.834C244.177 229.999 244.129 230.183 244.129 230.387V232.404C244.129 232.609 244.177 232.793 244.274 232.958C244.37 233.122 244.5 233.253 244.665 233.349C244.83 233.445 245.014 233.494 245.218 233.494ZM250.646 228.217C251.052 228.217 251.415 228.312 251.735 228.502C252.059 228.693 252.314 228.958 252.501 229.298C252.689 229.636 252.782 230.027 252.782 230.473V232.251C252.782 232.733 252.689 233.15 252.501 233.502C252.314 233.851 252.05 234.121 251.71 234.311C251.37 234.498 250.97 234.592 250.51 234.592C250.212 234.592 249.929 234.548 249.659 234.46C249.392 234.369 249.146 234.22 248.919 234.013L249.744 233.187C249.846 233.289 249.964 233.369 250.097 233.426C250.233 233.482 250.371 233.511 250.51 233.511C250.731 233.511 250.923 233.46 251.084 233.358C251.249 233.253 251.375 233.118 251.463 232.953C251.554 232.786 251.599 232.609 251.599 232.421V231.511L251.795 231.724C251.622 231.902 251.419 232.04 251.187 232.136C250.954 232.23 250.714 232.277 250.467 232.277C250.082 232.277 249.741 232.19 249.446 232.017C249.154 231.844 248.924 231.607 248.757 231.307C248.592 231.006 248.51 230.663 248.51 230.277C248.51 229.891 248.608 229.544 248.804 229.234C248.999 228.922 249.259 228.676 249.582 228.494C249.906 228.31 250.26 228.217 250.646 228.217ZM250.646 229.324C250.47 229.324 250.309 229.366 250.161 229.451C250.016 229.536 249.9 229.651 249.812 229.796C249.727 229.941 249.685 230.101 249.685 230.277C249.685 230.453 249.727 230.614 249.812 230.762C249.897 230.907 250.012 231.023 250.157 231.111C250.302 231.196 250.462 231.239 250.638 231.239C250.814 231.239 250.974 231.196 251.119 231.111C251.266 231.023 251.382 230.907 251.467 230.762C251.555 230.614 251.599 230.453 251.599 230.277C251.599 230.107 251.557 229.949 251.472 229.805C251.387 229.66 251.272 229.544 251.127 229.456C250.982 229.368 250.822 229.324 250.646 229.324ZM255.523 228.337H256.681L255.047 234.464H253.889L255.523 228.337ZM257.619 234.455V233.451L260.189 231.17C260.382 231 260.518 230.84 260.597 230.69C260.677 230.539 260.716 230.399 260.716 230.268C260.716 230.081 260.678 229.915 260.602 229.77C260.525 229.623 260.417 229.508 260.278 229.426C260.139 229.341 259.976 229.298 259.789 229.298C259.593 229.298 259.42 229.344 259.27 229.434C259.122 229.522 259.007 229.64 258.925 229.788C258.843 229.932 258.804 230.09 258.81 230.26H257.619C257.619 229.84 257.711 229.477 257.895 229.171C258.08 228.864 258.336 228.627 258.665 228.46C258.995 228.293 259.377 228.209 259.814 228.209C260.214 228.209 260.572 228.297 260.887 228.473C261.204 228.646 261.454 228.888 261.636 229.2C261.817 229.512 261.908 229.874 261.908 230.285C261.908 230.589 261.865 230.841 261.78 231.043C261.695 231.241 261.569 231.426 261.401 231.596C261.234 231.763 261.028 231.953 260.784 232.166L259.125 233.621L259.031 233.366H261.908V234.455H257.619ZM263.231 234.464L265.291 229.426H262.67V228.337H266.533V229.426L264.482 234.464H263.231Z" fill="#CFD0D3"/>
<path d="M158.794 153.528V133.924H167.072C167.262 133.924 167.516 133.933 167.834 133.952C168.161 133.961 168.451 133.988 168.705 134.033C169.876 134.215 170.833 134.601 171.578 135.19C172.331 135.78 172.885 136.525 173.239 137.423C173.593 138.313 173.769 139.306 173.769 140.405C173.769 141.503 173.588 142.501 173.225 143.4C172.871 144.289 172.317 145.029 171.564 145.619C170.82 146.208 169.867 146.594 168.705 146.776C168.451 146.812 168.161 146.839 167.834 146.857C167.507 146.876 167.253 146.885 167.072 146.885H162.497V153.528H158.794ZM162.497 143.427H166.908C167.099 143.427 167.308 143.418 167.534 143.4C167.761 143.381 167.97 143.345 168.161 143.291C168.66 143.154 169.046 142.928 169.318 142.61C169.59 142.283 169.776 141.925 169.876 141.534C169.985 141.135 170.039 140.758 170.039 140.405C170.039 140.051 169.985 139.678 169.876 139.288C169.776 138.889 169.59 138.53 169.318 138.213C169.046 137.886 168.66 137.655 168.161 137.518C167.97 137.464 167.761 137.428 167.534 137.41C167.308 137.391 167.099 137.382 166.908 137.382H162.497V143.427ZM180.294 153.936C179.242 153.936 178.348 153.737 177.613 153.337C176.887 152.929 176.333 152.389 175.952 151.717C175.58 151.037 175.394 150.288 175.394 149.471C175.394 148.791 175.498 148.169 175.707 147.606C175.915 147.043 176.251 146.549 176.714 146.122C177.186 145.687 177.817 145.324 178.606 145.033C179.151 144.833 179.8 144.657 180.553 144.502C181.306 144.348 182.16 144.203 183.112 144.067C184.065 143.921 185.114 143.763 186.257 143.59L184.923 144.325C184.923 143.454 184.714 142.814 184.297 142.406C183.879 141.997 183.181 141.793 182.2 141.793C181.656 141.793 181.089 141.925 180.499 142.188C179.909 142.451 179.496 142.918 179.26 143.59L175.911 142.528C176.283 141.312 176.982 140.323 178.007 139.56C179.033 138.798 180.431 138.417 182.2 138.417C183.498 138.417 184.651 138.617 185.658 139.016C186.666 139.415 187.428 140.105 187.945 141.085C188.236 141.63 188.408 142.174 188.463 142.719C188.517 143.263 188.544 143.871 188.544 144.543V153.528H185.304V150.506L185.767 151.132C185.05 152.121 184.274 152.838 183.439 153.283C182.613 153.719 181.565 153.936 180.294 153.936ZM181.084 151.023C181.765 151.023 182.337 150.905 182.799 150.669C183.271 150.424 183.643 150.147 183.916 149.839C184.197 149.53 184.388 149.272 184.487 149.063C184.678 148.663 184.787 148.201 184.814 147.674C184.851 147.139 184.869 146.694 184.869 146.34L185.958 146.612C184.86 146.794 183.97 146.948 183.289 147.075C182.609 147.193 182.06 147.302 181.642 147.402C181.225 147.502 180.857 147.611 180.54 147.729C180.176 147.874 179.882 148.033 179.655 148.205C179.437 148.368 179.273 148.55 179.165 148.75C179.065 148.949 179.015 149.172 179.015 149.417C179.015 149.753 179.096 150.043 179.26 150.288C179.432 150.524 179.673 150.706 179.981 150.833C180.29 150.96 180.658 151.023 181.084 151.023ZM192.084 153.528V138.825H195.351V142.419L194.997 141.956C195.188 141.448 195.442 140.985 195.76 140.568C196.077 140.15 196.468 139.806 196.931 139.533C197.285 139.315 197.67 139.148 198.088 139.03C198.505 138.902 198.936 138.825 199.381 138.798C199.826 138.762 200.27 138.771 200.715 138.825V142.283C200.307 142.156 199.83 142.115 199.286 142.161C198.75 142.197 198.265 142.319 197.829 142.528C197.393 142.728 197.026 142.996 196.726 143.331C196.427 143.658 196.2 144.048 196.046 144.502C195.891 144.947 195.814 145.451 195.814 146.013V153.528H192.084ZM207.096 153.936C206.044 153.936 205.15 153.737 204.414 153.337C203.688 152.929 203.135 152.389 202.754 151.717C202.381 151.037 202.195 150.288 202.195 149.471C202.195 148.791 202.3 148.169 202.509 147.606C202.717 147.043 203.053 146.549 203.516 146.122C203.988 145.687 204.619 145.324 205.408 145.033C205.953 144.833 206.602 144.657 207.355 144.502C208.108 144.348 208.961 144.203 209.914 144.067C210.867 143.921 211.916 143.763 213.059 143.59L211.725 144.325C211.725 143.454 211.516 142.814 211.099 142.406C210.681 141.997 209.982 141.793 209.002 141.793C208.458 141.793 207.89 141.925 207.301 142.188C206.711 142.451 206.298 142.918 206.062 143.59L202.713 142.528C203.085 141.312 203.784 140.323 204.809 139.56C205.835 138.798 207.232 138.417 209.002 138.417C210.3 138.417 211.453 138.617 212.46 139.016C213.468 139.415 214.23 140.105 214.747 141.085C215.038 141.63 215.21 142.174 215.265 142.719C215.319 143.263 215.346 143.871 215.346 144.543V153.528H212.106V150.506L212.569 151.132C211.852 152.121 211.076 152.838 210.241 153.283C209.415 153.719 208.367 153.936 207.096 153.936ZM207.886 151.023C208.567 151.023 209.138 150.905 209.601 150.669C210.073 150.424 210.445 150.147 210.718 149.839C210.999 149.53 211.19 149.272 211.289 149.063C211.48 148.663 211.589 148.201 211.616 147.674C211.652 147.139 211.671 146.694 211.671 146.34L212.76 146.612C211.661 146.794 210.772 146.948 210.091 147.075C209.411 147.193 208.862 147.302 208.444 147.402C208.027 147.502 207.659 147.611 207.341 147.729C206.978 147.874 206.683 148.033 206.457 148.205C206.239 148.368 206.075 148.55 205.966 148.75C205.867 148.949 205.817 149.172 205.817 149.417C205.817 149.753 205.898 150.043 206.062 150.288C206.234 150.524 206.475 150.706 206.783 150.833C207.092 150.96 207.459 151.023 207.886 151.023ZM226.101 153.936C224.64 153.936 223.419 153.596 222.439 152.915C221.459 152.235 220.719 151.309 220.22 150.138C219.73 148.968 219.485 147.647 219.485 146.177C219.485 144.706 219.73 143.386 220.22 142.215C220.71 141.044 221.432 140.119 222.385 139.438C223.338 138.757 224.513 138.417 225.911 138.417C227.317 138.417 228.543 138.753 229.586 139.424C230.63 140.096 231.438 141.017 232.01 142.188C232.59 143.35 232.881 144.679 232.881 146.177C232.881 147.647 232.595 148.968 232.023 150.138C231.46 151.309 230.671 152.235 229.654 152.915C228.638 153.596 227.454 153.936 226.101 153.936ZM218.859 160.063V138.825H222.126V148.899H222.589V160.063H218.859ZM225.502 150.642C226.301 150.642 226.954 150.442 227.463 150.043C227.971 149.644 228.347 149.108 228.593 148.437C228.838 147.756 228.96 147.003 228.96 146.177C228.96 145.36 228.833 144.616 228.579 143.944C228.325 143.263 227.93 142.723 227.395 142.324C226.868 141.916 226.192 141.711 225.366 141.711C224.595 141.711 223.968 141.897 223.487 142.27C223.015 142.642 222.671 143.164 222.453 143.835C222.235 144.507 222.126 145.287 222.126 146.177C222.126 147.066 222.235 147.847 222.453 148.518C222.671 149.19 223.025 149.712 223.515 150.084C224.014 150.456 224.676 150.642 225.502 150.642Z" fill="#CFD0D3"/>
<circle cx="195.177" cy="77.359" r="28.3392" transform="rotate(-0.0456795 195.177 77.359)" fill="url(#paint0_linear_81_18085)"/>
<g filter="url(#filter1_d_81_18085)">
<rect x="192.68" y="64.88" width="7.09045" height="26.6601" rx="3.54522" transform="rotate(33 192.68 64.88)" fill="white"/>
</g>
<g filter="url(#filter2_d_81_18085)">
<rect x="206.273" y="63.6038" width="7.09045" height="19.8533" rx="3.54522" transform="rotate(33 206.273 63.6038)" fill="white"/>
</g>
<path d="M155.504 260.566C155.294 260.566 155.088 260.504 154.913 260.387C154.738 260.27 154.602 260.104 154.521 259.91C154.441 259.715 154.42 259.501 154.461 259.295C154.502 259.089 154.603 258.899 154.752 258.75C154.901 258.602 155.09 258.5 155.296 258.459C155.503 258.418 155.717 258.439 155.911 258.52C156.105 258.6 156.271 258.737 156.388 258.912C156.505 259.087 156.567 259.292 156.567 259.503C156.567 259.785 156.455 260.055 156.256 260.255C156.056 260.454 155.786 260.566 155.504 260.566ZM165.874 269.17C168.109 266.445 169.331 263.028 169.331 259.503C169.331 255.977 168.109 252.561 165.874 249.835C165.815 249.763 165.742 249.703 165.66 249.659C165.577 249.615 165.487 249.588 165.395 249.579C165.302 249.57 165.208 249.579 165.119 249.606C165.03 249.633 164.947 249.678 164.875 249.737C164.803 249.796 164.744 249.869 164.7 249.951C164.656 250.033 164.629 250.123 164.62 250.216C164.601 250.403 164.658 250.59 164.777 250.735C166.805 253.207 167.912 256.306 167.912 259.503C167.912 262.7 166.805 265.798 164.777 268.27C164.658 268.415 164.601 268.602 164.62 268.789C164.638 268.977 164.73 269.149 164.875 269.268C165.021 269.388 165.208 269.444 165.395 269.426C165.582 269.408 165.754 269.316 165.874 269.17ZM162.703 266.327C164.241 264.385 165.077 261.982 165.077 259.505C165.077 257.029 164.241 254.625 162.703 252.683C162.587 252.536 162.416 252.441 162.229 252.419C162.042 252.398 161.855 252.451 161.707 252.568C161.56 252.685 161.465 252.855 161.443 253.042C161.422 253.229 161.475 253.417 161.592 253.564C162.93 255.255 163.659 257.349 163.659 259.505C163.659 261.662 162.93 263.755 161.592 265.446C161.534 265.519 161.491 265.603 161.466 265.692C161.44 265.782 161.432 265.876 161.443 265.968C161.454 266.061 161.483 266.15 161.528 266.231C161.573 266.313 161.634 266.384 161.707 266.442C161.78 266.5 161.864 266.543 161.953 266.569C162.043 266.594 162.137 266.602 162.229 266.591C162.322 266.58 162.411 266.552 162.493 266.506C162.574 266.461 162.646 266.4 162.703 266.327ZM159.534 263.468C160.371 262.316 160.822 260.929 160.822 259.505C160.822 258.081 160.371 256.694 159.534 255.543C159.423 255.39 159.257 255.289 159.071 255.259C158.885 255.23 158.695 255.276 158.543 255.387C158.391 255.497 158.289 255.664 158.26 255.85C158.231 256.035 158.276 256.225 158.387 256.377C159.048 257.286 159.404 258.381 159.404 259.505C159.404 260.629 159.048 261.724 158.387 262.633C158.332 262.708 158.293 262.794 158.271 262.884C158.249 262.975 158.245 263.069 158.26 263.161C158.274 263.253 158.307 263.341 158.355 263.42C158.404 263.5 158.468 263.569 158.543 263.624C158.618 263.679 158.704 263.718 158.794 263.74C158.885 263.762 158.979 263.766 159.071 263.751C159.163 263.737 159.251 263.704 159.331 263.656C159.41 263.607 159.479 263.543 159.534 263.468Z" fill="#CFD0D3"/>
<ellipse opacity="0.9" cx="242.449" cy="259.505" rx="11.3469" ry="11.3469" fill="#E53943"/>
<ellipse opacity="0.9" cx="255.688" cy="259.505" rx="11.3469" ry="11.3469" fill="#F4A940"/>
<g clip-path="url(#clip0_81_18085)">
<path d="M125.01 250.354V268.114C125.01 269.473 126.115 270.579 127.474 270.579H140.262C141.621 270.579 142.726 269.473 142.726 268.114V250.354C142.726 248.995 141.621 247.889 140.262 247.889H127.474C126.115 247.889 125.01 248.995 125.01 250.354ZM133.535 249.976V255.349H131.026C130.818 255.349 130.649 255.18 130.649 254.971V249.976H133.535ZM134.201 255.349V249.976H137.087V255.349H134.201ZM132.425 249.31V248.555H135.311V249.31H132.425ZM131.759 249.31H128.873V248.555H131.759V249.31ZM129.983 249.976V254.971C129.983 255.547 130.451 256.015 131.026 256.015H140.639V262.453H127.097V250.354C127.097 250.146 127.266 249.976 127.474 249.976H129.983ZM133.535 263.119V268.492H130.649V263.119H133.535ZM135.311 269.158V269.913H132.425V269.158H135.311ZM134.201 268.492V263.119H137.087V268.492H134.201ZM126.431 258.901H125.676V252.818H126.431V258.901ZM126.431 259.567V265.65H125.676V259.567H126.431ZM127.097 263.119H129.983V268.492H127.474C127.266 268.492 127.097 268.323 127.097 268.114V263.119ZM131.759 269.158V269.913H128.873V269.158H131.759ZM135.977 269.913V269.158H138.863V269.913H135.977ZM137.753 268.492V263.119H140.639V268.114C140.639 268.323 140.47 268.492 140.262 268.492H137.753ZM141.305 259.567H142.06V265.65H141.305V259.567ZM141.305 258.901V252.818H142.06V258.901H141.305ZM140.639 255.349H137.753V249.976H140.262C140.47 249.976 140.639 250.146 140.639 250.354V255.349ZM135.977 249.31V248.555H138.863V249.31H135.977ZM127.474 248.555H128.207V249.31H127.474C126.899 249.31 126.431 249.778 126.431 250.354V252.152H125.676V250.354C125.676 249.362 126.483 248.555 127.474 248.555ZM125.676 268.114V266.316H126.431V268.114C126.431 268.69 126.899 269.158 127.474 269.158H128.207V269.913H127.474C126.483 269.913 125.676 269.106 125.676 268.114ZM140.262 269.913H139.529V269.158H140.262C140.837 269.158 141.305 268.69 141.305 268.114V266.316H142.06V268.114C142.06 269.106 141.254 269.913 140.262 269.913ZM142.06 250.354V252.152H141.305V250.354C141.305 249.778 140.837 249.31 140.262 249.31H139.529V248.555H140.262C141.254 248.555 142.06 249.362 142.06 250.354Z" fill="#CFD0D3"/>
</g>
<path d="M125.577 219.814V213.687H128.028C128.465 213.687 128.818 213.775 129.088 213.95C129.357 214.123 129.554 214.342 129.679 214.606C129.804 214.87 129.866 215.136 129.866 215.406C129.866 215.749 129.788 216.034 129.632 216.261C129.479 216.488 129.268 216.64 128.998 216.716V216.504C129.381 216.583 129.668 216.76 129.858 217.035C130.051 217.311 130.147 217.618 130.147 217.959C130.147 218.325 130.079 218.647 129.943 218.925C129.81 219.203 129.605 219.421 129.33 219.58C129.055 219.736 128.709 219.814 128.292 219.814H125.577ZM126.752 218.725H128.173C128.329 218.725 128.468 218.692 128.59 218.627C128.712 218.559 128.807 218.465 128.875 218.346C128.946 218.224 128.981 218.081 128.981 217.916C128.981 217.772 128.951 217.642 128.892 217.529C128.832 217.416 128.742 217.326 128.62 217.261C128.5 217.193 128.351 217.159 128.173 217.159H126.752V218.725ZM126.752 216.078H128.011C128.142 216.078 128.258 216.055 128.36 216.01C128.462 215.965 128.543 215.895 128.603 215.801C128.662 215.705 128.692 215.582 128.692 215.431C128.692 215.244 128.634 215.087 128.517 214.959C128.401 214.831 128.232 214.767 128.011 214.767H126.752V216.078ZM135.166 219.814V213.687H136.323V218.733H138.961V219.814H135.166ZM143.344 219.814L145.216 213.687H146.944L148.816 219.814H147.625L145.957 214.41H146.178L144.536 219.814H143.344ZM144.468 218.537V217.457H147.701V218.537H144.468ZM156.127 219.942C155.514 219.942 154.985 219.808 154.54 219.542C154.098 219.275 153.756 218.902 153.515 218.423C153.276 217.943 153.157 217.386 153.157 216.75C153.157 216.115 153.276 215.557 153.515 215.078C153.756 214.599 154.098 214.226 154.54 213.959C154.985 213.692 155.514 213.559 156.127 213.559C156.831 213.559 157.421 213.733 157.897 214.082C158.377 214.431 158.714 214.904 158.91 215.499L157.744 215.823C157.631 215.451 157.439 215.163 157.17 214.959C156.9 214.752 156.553 214.648 156.127 214.648C155.739 214.648 155.414 214.735 155.153 214.908C154.895 215.081 154.7 215.325 154.57 215.64C154.439 215.955 154.374 216.325 154.374 216.75C154.374 217.176 154.439 217.546 154.57 217.861C154.7 218.176 154.895 218.42 155.153 218.593C155.414 218.766 155.739 218.852 156.127 218.852C156.553 218.852 156.9 218.749 157.17 218.542C157.439 218.335 157.631 218.047 157.744 217.678L158.91 218.001C158.714 218.597 158.377 219.069 157.897 219.418C157.421 219.767 156.831 219.942 156.127 219.942ZM163.932 219.814V213.687H165.089V216.512L167.421 213.687H168.834L166.272 216.708L168.995 219.814H167.532L165.089 217.023V219.814H163.932Z" fill="#CFD0D3"/>
</g>
<rect x="-52" y="90.0334" width="69.8075" height="114.26" rx="7.08725" fill="#F4E5F2"/>
<path d="M-6.37028 177.936C-6.62543 177.936 -6.84572 177.881 -7.03117 177.77C-7.21544 177.659 -7.35777 177.503 -7.45818 177.304C-7.5574 177.104 -7.60701 176.872 -7.60701 176.607C-7.60701 176.343 -7.5574 176.111 -7.45818 175.911C-7.35777 175.711 -7.21544 175.556 -7.03117 175.445C-6.84572 175.334 -6.62543 175.278 -6.37028 175.278C-6.11514 175.278 -5.89544 175.334 -5.71117 175.445C-5.52572 175.556 -5.38338 175.711 -5.28416 175.911C-5.18376 176.111 -5.13356 176.343 -5.13356 176.607C-5.13356 176.872 -5.18376 177.104 -5.28416 177.304C-5.38338 177.503 -5.52572 177.659 -5.71117 177.77C-5.89544 177.881 -6.11514 177.936 -6.37028 177.936ZM-6.37028 177.483C-6.20846 177.485 -6.0738 177.45 -5.96631 177.378C-5.85882 177.306 -5.7785 177.204 -5.72534 177.071C-5.67101 176.939 -5.64384 176.784 -5.64384 176.607C-5.64384 176.43 -5.67101 176.276 -5.72534 176.147C-5.7785 176.017 -5.85882 175.916 -5.96631 175.844C-6.0738 175.772 -6.20846 175.734 -6.37028 175.732C-6.53211 175.73 -6.66677 175.764 -6.77426 175.836C-6.88175 175.909 -6.96266 176.011 -7.017 176.143C-7.07015 176.275 -7.09673 176.43 -7.09673 176.607C-7.09673 176.784 -7.07015 176.938 -7.017 177.068C-6.96266 177.198 -6.88175 177.299 -6.77426 177.371C-6.66677 177.443 -6.53211 177.48 -6.37028 177.483ZM-3.70614 175.119C-3.81009 175.119 -3.90459 175.094 -3.98963 175.043C-4.07468 174.992 -4.1426 174.924 -4.19339 174.839C-4.24418 174.754 -4.26958 174.659 -4.26958 174.555H-3.8975C-3.8975 174.609 -3.87919 174.654 -3.84257 174.692C-3.80477 174.729 -3.7593 174.747 -3.70614 174.747C-3.65299 174.747 -3.6081 174.729 -3.57149 174.692C-3.53369 174.654 -3.51479 174.609 -3.51479 174.555H-3.14271C-3.14271 174.659 -3.1681 174.754 -3.2189 174.839C-3.26969 174.924 -3.33761 174.992 -3.42265 175.043C-3.5077 175.094 -3.6022 175.119 -3.70614 175.119ZM-3.71677 177.936C-3.87742 177.936 -4.03038 177.908 -4.17567 177.851C-4.32096 177.793 -4.44971 177.708 -4.56193 177.596C-4.67296 177.484 -4.76096 177.345 -4.82593 177.18C-4.88971 177.014 -4.92161 176.823 -4.92161 176.607C-4.92161 176.325 -4.86786 176.085 -4.76037 175.888C-4.6517 175.689 -4.50641 175.538 -4.32451 175.434C-4.14142 175.33 -3.93884 175.278 -3.71677 175.278C-3.3884 175.278 -3.1303 175.355 -2.94249 175.507C-2.75468 175.659 -2.62888 175.875 -2.5651 176.154L-3.05766 176.225C-3.10373 176.076 -3.17932 175.957 -3.28445 175.868C-3.3884 175.779 -3.52187 175.733 -3.68488 175.732C-3.84671 175.73 -3.98136 175.764 -4.08885 175.836C-4.19634 175.909 -4.27726 176.011 -4.33159 176.143C-4.38475 176.275 -4.41132 176.43 -4.41132 176.607C-4.41132 176.784 -4.38475 176.938 -4.33159 177.068C-4.27726 177.198 -4.19634 177.299 -4.08885 177.371C-3.98136 177.443 -3.84671 177.48 -3.68488 177.483C-3.57503 177.485 -3.47581 177.466 -3.38722 177.426C-3.29745 177.386 -3.22185 177.322 -3.16043 177.236C-3.099 177.15 -3.0553 177.04 -3.02931 176.905H-3.43328V176.533H-2.51549C-2.51312 176.548 -2.51135 176.575 -2.51017 176.614C-2.50899 176.653 -2.5084 176.676 -2.5084 176.682C-2.5084 176.926 -2.55801 177.143 -2.65723 177.332C-2.75645 177.521 -2.89643 177.669 -3.07715 177.777C-3.25787 177.883 -3.47108 177.936 -3.71677 177.936ZM-1.11501 177.936C-1.32054 177.936 -1.50126 177.895 -1.65718 177.812C-1.8131 177.728 -1.93477 177.611 -2.02217 177.459C-2.10958 177.308 -2.15329 177.131 -2.15329 176.926V175.335L-1.66427 175.332V176.923C-1.66427 177.006 -1.65009 177.083 -1.62175 177.151C-1.5934 177.22 -1.55442 177.279 -1.50481 177.328C-1.45401 177.378 -1.39554 177.416 -1.3294 177.444C-1.26207 177.47 -1.1906 177.483 -1.11501 177.483C-1.03705 177.483 -0.964993 177.469 -0.898846 177.442C-0.831517 177.415 -0.773047 177.376 -0.723436 177.327C-0.673826 177.277 -0.635436 177.218 -0.608268 177.149C-0.57992 177.081 -0.565745 177.005 -0.565745 176.923V175.332H-0.0767249V176.926C-0.0767249 177.131 -0.12043 177.308 -0.207839 177.459C-0.295248 177.611 -0.416913 177.728 -0.572832 177.812C-0.728752 177.895 -0.909477 177.936 -1.11501 177.936ZM0.347043 177.883V177.823L1.55896 175.782H0.453352V175.332H2.40235V175.392L1.19751 177.429H2.36691V177.883H0.347043ZM4.73718 175.062V174.637H5.16241V175.062H4.73718ZM3.98593 175.062V174.637H4.41116V175.062H3.98593ZM4.57417 177.936C4.36864 177.936 4.18792 177.895 4.032 177.812C3.87608 177.728 3.75441 177.611 3.667 177.459C3.57959 177.308 3.53589 177.131 3.53589 176.926V175.335L4.02491 175.332V176.923C4.02491 177.006 4.03908 177.083 4.06743 177.151C4.09578 177.22 4.13476 177.279 4.18437 177.328C4.23516 177.378 4.29363 177.416 4.35978 177.444C4.42711 177.47 4.49857 177.483 4.57417 177.483C4.65213 177.483 4.72419 177.469 4.79033 177.442C4.85766 177.415 4.91613 177.376 4.96574 177.327C5.01535 177.277 5.05374 177.218 5.08091 177.149C5.10926 177.081 5.12343 177.005 5.12343 176.923V175.332H5.61245V176.926C5.61245 177.131 5.56875 177.308 5.48134 177.459C5.39393 177.611 5.27227 177.728 5.11635 177.812C4.96043 177.895 4.7797 177.936 4.57417 177.936ZM6.10709 177.883V175.332H6.59611L7.70527 177.032V175.332H8.19429V177.883H7.70527L6.59611 176.182V177.883H6.10709ZM8.5115 177.883L9.2911 175.332H10.0105L10.79 177.883H10.2939L9.59939 175.633H9.69153L9.00761 177.883H8.5115ZM8.97926 177.351V176.901H10.3258V177.351H8.97926ZM11.1431 177.883V175.332H11.625V177.433H12.7235V177.883H11.1431Z" fill="#E467D4"/>
<path d="M3.81444 183.805C3.62545 183.805 3.46008 183.766 3.31833 183.687C3.17659 183.607 3.06615 183.497 2.987 183.355C2.90786 183.213 2.86829 183.048 2.86829 182.859V182.094C2.86829 181.905 2.90786 181.739 2.987 181.598C3.06615 181.456 3.17659 181.345 3.31833 181.266C3.46008 181.187 3.62545 181.148 3.81444 181.148C4.00343 181.148 4.1688 181.187 4.31055 181.266C4.45229 181.345 4.56274 181.456 4.64188 181.598C4.72102 181.739 4.76059 181.905 4.76059 182.094V182.859C4.76059 183.048 4.72102 183.213 4.64188 183.355C4.56274 183.497 4.45229 183.607 4.31055 183.687C4.1688 183.766 4.00343 183.805 3.81444 183.805ZM3.81444 183.348C3.89949 183.348 3.97627 183.328 4.04478 183.288C4.11329 183.248 4.16762 183.193 4.20778 183.125C4.24794 183.056 4.26802 182.98 4.26802 182.895V182.055C4.26802 181.97 4.24794 181.893 4.20778 181.824C4.16762 181.756 4.11329 181.701 4.04478 181.661C3.97627 181.621 3.89949 181.601 3.81444 181.601C3.72939 181.601 3.65262 181.621 3.58411 181.661C3.5156 181.701 3.46126 181.756 3.4211 181.824C3.38094 181.893 3.36086 181.97 3.36086 182.055V182.895C3.36086 182.98 3.38094 183.056 3.4211 183.125C3.46126 183.193 3.5156 183.248 3.58411 183.288C3.65262 183.328 3.72939 183.348 3.81444 183.348ZM6.07466 181.151C6.24358 181.151 6.39477 181.191 6.52825 181.27C6.66291 181.349 6.76921 181.459 6.84717 181.601C6.92513 181.742 6.96411 181.905 6.96411 182.09V182.831C6.96411 183.032 6.92513 183.205 6.84717 183.352C6.76921 183.497 6.65936 183.609 6.51762 183.688C6.37587 183.766 6.20932 183.805 6.01797 183.805C5.89394 183.805 5.77582 183.787 5.6636 183.75C5.55257 183.713 5.4498 183.65 5.35531 183.564L5.69904 183.221C5.74156 183.263 5.79058 183.296 5.8461 183.32C5.9028 183.343 5.96009 183.355 6.01797 183.355C6.1101 183.355 6.18983 183.334 6.25716 183.291C6.32567 183.248 6.37823 183.192 6.41485 183.123C6.45265 183.053 6.47155 182.98 6.47155 182.902V182.522L6.55305 182.611C6.481 182.685 6.39654 182.743 6.29968 182.783C6.20282 182.822 6.10301 182.841 6.00025 182.841C5.8396 182.841 5.69786 182.805 5.57501 182.733C5.45335 182.661 5.35767 182.563 5.28798 182.437C5.21947 182.312 5.18521 182.169 5.18521 182.009C5.18521 181.848 5.22597 181.703 5.30747 181.575C5.38897 181.445 5.49705 181.342 5.63171 181.266C5.76637 181.189 5.91402 181.151 6.07466 181.151ZM6.07466 181.612C6.00143 181.612 5.9341 181.629 5.87268 181.665C5.81244 181.7 5.76401 181.748 5.72739 181.808C5.69195 181.869 5.67423 181.935 5.67423 182.009C5.67423 182.082 5.69195 182.149 5.72739 182.211C5.76282 182.271 5.81066 182.319 5.87091 182.356C5.93115 182.391 5.99789 182.409 6.07112 182.409C6.14436 182.409 6.21109 182.391 6.27133 182.356C6.33276 182.319 6.38119 182.271 6.41662 182.211C6.45324 182.149 6.47155 182.082 6.47155 182.009C6.47155 181.938 6.45383 181.872 6.4184 181.812C6.38296 181.752 6.33512 181.703 6.27488 181.667C6.21464 181.63 6.1479 181.612 6.07466 181.612ZM8.10541 181.201H8.58734L7.90697 183.752H7.42503L8.10541 181.201ZM8.978 183.749V183.33L10.0482 182.381C10.1285 182.31 10.1852 182.243 10.2183 182.18C10.2513 182.118 10.2679 182.059 10.2679 182.005C10.2679 181.927 10.2519 181.858 10.22 181.798C10.1881 181.736 10.1433 181.689 10.0854 181.654C10.0275 181.619 9.95958 181.601 9.88162 181.601C9.80012 181.601 9.72807 181.62 9.66546 181.658C9.60404 181.694 9.5562 181.743 9.52195 181.805C9.48769 181.865 9.47174 181.931 9.47411 182.002H8.978C8.978 181.827 9.01639 181.676 9.09317 181.548C9.16995 181.42 9.27684 181.322 9.41386 181.252C9.55089 181.182 9.71035 181.148 9.89225 181.148C10.0588 181.148 10.2076 181.184 10.3388 181.257C10.471 181.329 10.575 181.43 10.6506 181.56C10.7262 181.69 10.764 181.841 10.764 182.012C10.764 182.139 10.7463 182.244 10.7108 182.328C10.6754 182.41 10.6228 182.487 10.5531 182.558C10.4834 182.628 10.3978 182.707 10.2962 182.795L9.60522 183.401L9.56624 183.295H10.764V183.749H8.978ZM11.3151 183.752L12.1726 181.654H11.0812V181.201H12.69V181.654L11.836 183.752H11.3151Z" fill="#E467D4"/>
<ellipse opacity="0.9" cx="2.66185" cy="193.927" rx="4.72483" ry="4.72483" fill="#E53943"/>
<ellipse opacity="0.9" cx="8.17424" cy="193.926" rx="4.72483" ry="4.72483" fill="#F4A940"/>
<rect x="29.5885" y="90.0334" width="69.8075" height="114.26" rx="7.08725" fill="#DDF4F3"/>
<path d="M75.2182 177.936C74.9631 177.936 74.7428 177.881 74.5573 177.77C74.3731 177.659 74.2307 177.503 74.1303 177.304C74.0311 177.104 73.9815 176.872 73.9815 176.607C73.9815 176.343 74.0311 176.111 74.1303 175.911C74.2307 175.711 74.3731 175.556 74.5573 175.445C74.7428 175.334 74.9631 175.278 75.2182 175.278C75.4734 175.278 75.6931 175.334 75.8773 175.445C76.0628 175.556 76.2051 175.711 76.3043 175.911C76.4047 176.111 76.4549 176.343 76.4549 176.607C76.4549 176.872 76.4047 177.104 76.3043 177.304C76.2051 177.503 76.0628 177.659 75.8773 177.77C75.6931 177.881 75.4734 177.936 75.2182 177.936ZM75.2182 177.483C75.38 177.485 75.5147 177.45 75.6222 177.378C75.7297 177.306 75.81 177.204 75.8632 177.071C75.9175 176.939 75.9447 176.784 75.9447 176.607C75.9447 176.43 75.9175 176.276 75.8632 176.147C75.81 176.017 75.7297 175.916 75.6222 175.844C75.5147 175.772 75.38 175.734 75.2182 175.732C75.0564 175.73 74.9217 175.764 74.8142 175.836C74.7068 175.909 74.6258 176.011 74.5715 176.143C74.5184 176.275 74.4918 176.43 74.4918 176.607C74.4918 176.784 74.5184 176.938 74.5715 177.068C74.6258 177.198 74.7068 177.299 74.8142 177.371C74.9217 177.443 75.0564 177.48 75.2182 177.483ZM77.8824 175.119C77.7784 175.119 77.6839 175.094 77.5989 175.043C77.5138 174.992 77.4459 174.924 77.3951 174.839C77.3443 174.754 77.3189 174.659 77.3189 174.555H77.691C77.691 174.609 77.7093 174.654 77.7459 174.692C77.7837 174.729 77.8292 174.747 77.8824 174.747C77.9355 174.747 77.9804 174.729 78.017 174.692C78.0548 174.654 78.0737 174.609 78.0737 174.555H78.4458C78.4458 174.659 78.4204 174.754 78.3696 174.839C78.3188 174.924 78.2509 174.992 78.1658 175.043C78.0808 175.094 77.9863 175.119 77.8824 175.119ZM77.8717 177.936C77.7111 177.936 77.5581 177.908 77.4128 177.851C77.2675 177.793 77.1388 177.708 77.0266 177.596C76.9155 177.484 76.8275 177.345 76.7626 177.18C76.6988 177.014 76.6669 176.823 76.6669 176.607C76.6669 176.325 76.7206 176.085 76.8281 175.888C76.9368 175.689 77.0821 175.538 77.264 175.434C77.4471 175.33 77.6497 175.278 77.8717 175.278C78.2001 175.278 78.4582 175.355 78.646 175.507C78.8338 175.659 78.9596 175.875 79.0234 176.154L78.5308 176.225C78.4848 176.076 78.4092 175.957 78.304 175.868C78.2001 175.779 78.0666 175.733 77.9036 175.732C77.7418 175.73 77.6071 175.764 77.4996 175.836C77.3922 175.909 77.3112 176.011 77.2569 176.143C77.2038 176.275 77.1772 176.43 77.1772 176.607C77.1772 176.784 77.2038 176.938 77.2569 177.068C77.3112 177.198 77.3922 177.299 77.4996 177.371C77.6071 177.443 77.7418 177.48 77.9036 177.483C78.0135 177.485 78.1127 177.466 78.2013 177.426C78.2911 177.386 78.3667 177.322 78.4281 177.236C78.4895 177.15 78.5332 177.04 78.5592 176.905H78.1552V176.533H79.073C79.0754 176.548 79.0771 176.575 79.0783 176.614C79.0795 176.653 79.0801 176.676 79.0801 176.682C79.0801 176.926 79.0305 177.143 78.9313 177.332C78.832 177.521 78.6921 177.669 78.5114 177.777C78.3306 177.883 78.1174 177.936 77.8717 177.936ZM80.4735 177.936C80.268 177.936 80.0872 177.895 79.9313 177.812C79.7754 177.728 79.6537 177.611 79.5663 177.459C79.4789 177.308 79.4352 177.131 79.4352 176.926V175.335L79.9242 175.332V176.923C79.9242 177.006 79.9384 177.083 79.9668 177.151C79.9951 177.22 80.0341 177.279 80.0837 177.328C80.1345 177.378 80.193 177.416 80.2591 177.444C80.3264 177.47 80.3979 177.483 80.4735 177.483C80.5515 177.483 80.6235 177.469 80.6897 177.442C80.757 177.415 80.8155 177.376 80.8651 177.327C80.9147 177.277 80.9531 177.218 80.9802 177.149C81.0086 177.081 81.0228 177.005 81.0228 176.923V175.332H81.5118V176.926C81.5118 177.131 81.4681 177.308 81.3807 177.459C81.2933 177.611 81.1716 177.728 81.0157 177.812C80.8597 177.895 80.679 177.936 80.4735 177.936ZM81.9355 177.883V177.823L83.1475 175.782H82.0419V175.332H83.9908V175.392L82.786 177.429H83.9554V177.883H81.9355ZM86.3257 175.062V174.637H86.7509V175.062H86.3257ZM85.5744 175.062V174.637H85.9997V175.062H85.5744ZM86.1627 177.936C85.9571 177.936 85.7764 177.895 85.6205 177.812C85.4646 177.728 85.3429 177.611 85.2555 177.459C85.1681 177.308 85.1244 177.131 85.1244 176.926V175.335L85.6134 175.332V176.923C85.6134 177.006 85.6276 177.083 85.6559 177.151C85.6843 177.22 85.7233 177.279 85.7729 177.328C85.8237 177.378 85.8821 177.416 85.9483 177.444C86.0156 177.47 86.0871 177.483 86.1627 177.483C86.2406 177.483 86.3127 177.469 86.3788 177.442C86.4462 177.415 86.5046 177.376 86.5542 177.327C86.6039 177.277 86.6422 177.218 86.6694 177.149C86.6978 177.081 86.7119 177.005 86.7119 176.923V175.332H87.201V176.926C87.201 177.131 87.1572 177.308 87.0698 177.459C86.9824 177.611 86.8608 177.728 86.7048 177.812C86.5489 177.895 86.3682 177.936 86.1627 177.936ZM87.6956 177.883V175.332H88.1846L89.2938 177.032V175.332H89.7828V177.883H89.2938L88.1846 176.182V177.883H87.6956ZM90.1 177.883L90.8796 175.332H91.599L92.3786 177.883H91.8824L91.1879 175.633H91.28L90.5961 177.883H90.1ZM90.5678 177.351V176.901H91.9143V177.351H90.5678ZM92.7316 177.883V175.332H93.2135V177.433H94.312V177.883H92.7316Z" fill="#464D4F"/>
<path d="M85.4029 183.805C85.2139 183.805 85.0486 183.766 84.9068 183.687C84.7651 183.607 84.6546 183.497 84.5755 183.355C84.4964 183.213 84.4568 183.048 84.4568 182.859V182.094C84.4568 181.905 84.4964 181.739 84.5755 181.598C84.6546 181.456 84.7651 181.345 84.9068 181.266C85.0486 181.187 85.2139 181.148 85.4029 181.148C85.5919 181.148 85.7573 181.187 85.899 181.266C86.0408 181.345 86.1512 181.456 86.2304 181.598C86.3095 181.739 86.3491 181.905 86.3491 182.094V182.859C86.3491 183.048 86.3095 183.213 86.2304 183.355C86.1512 183.497 86.0408 183.607 85.899 183.687C85.7573 183.766 85.5919 183.805 85.4029 183.805ZM85.4029 183.348C85.488 183.348 85.5648 183.328 85.6333 183.288C85.7018 183.248 85.7561 183.193 85.7963 183.125C85.8364 183.056 85.8565 182.98 85.8565 182.895V182.055C85.8565 181.97 85.8364 181.893 85.7963 181.824C85.7561 181.756 85.7018 181.701 85.6333 181.661C85.5648 181.621 85.488 181.601 85.4029 181.601C85.3179 181.601 85.2411 181.621 85.1726 181.661C85.1041 181.701 85.0498 181.756 85.0096 181.824C84.9694 181.893 84.9494 181.97 84.9494 182.055V182.895C84.9494 182.98 84.9694 183.056 85.0096 183.125C85.0498 183.193 85.1041 183.248 85.1726 183.288C85.2411 183.328 85.3179 183.348 85.4029 183.348ZM87.6632 181.151C87.8321 181.151 87.9833 181.191 88.1167 181.27C88.2514 181.349 88.3577 181.459 88.4357 181.601C88.5136 181.742 88.5526 181.905 88.5526 182.09V182.831C88.5526 183.032 88.5136 183.205 88.4357 183.352C88.3577 183.497 88.2479 183.609 88.1061 183.688C87.9644 183.766 87.7978 183.805 87.6065 183.805C87.4824 183.805 87.3643 183.787 87.2521 183.75C87.1411 183.713 87.0383 183.65 86.9438 183.564L87.2875 183.221C87.3301 183.263 87.3791 183.296 87.4346 183.32C87.4913 183.343 87.5486 183.355 87.6065 183.355C87.6986 183.355 87.7783 183.334 87.8457 183.291C87.9142 183.248 87.9667 183.192 88.0034 183.123C88.0412 183.053 88.0601 182.98 88.0601 182.902V182.522L88.1416 182.611C88.0695 182.685 87.985 182.743 87.8882 182.783C87.7913 182.822 87.6915 182.841 87.5887 182.841C87.4281 182.841 87.2864 182.805 87.1635 182.733C87.0418 182.661 86.9462 182.563 86.8765 182.437C86.808 182.312 86.7737 182.169 86.7737 182.009C86.7737 181.848 86.8145 181.703 86.896 181.575C86.9775 181.445 87.0856 181.342 87.2202 181.266C87.3549 181.189 87.5025 181.151 87.6632 181.151ZM87.6632 181.612C87.5899 181.612 87.5226 181.629 87.4612 181.665C87.4009 181.7 87.3525 181.748 87.3159 181.808C87.2805 181.869 87.2627 181.935 87.2627 182.009C87.2627 182.082 87.2805 182.149 87.3159 182.211C87.3513 182.271 87.3992 182.319 87.4594 182.356C87.5196 182.391 87.5864 182.409 87.6596 182.409C87.7329 182.409 87.7996 182.391 87.8598 182.356C87.9213 182.319 87.9697 182.271 88.0051 182.211C88.0417 182.149 88.0601 182.082 88.0601 182.009C88.0601 181.938 88.0423 181.872 88.0069 181.812C87.9715 181.752 87.9236 181.703 87.8634 181.667C87.8031 181.63 87.7364 181.612 87.6632 181.612ZM89.6939 181.201H90.1758L89.4955 183.752H89.0135L89.6939 181.201ZM90.5665 183.749V183.33L91.6367 182.381C91.717 182.31 91.7737 182.243 91.8068 182.18C91.8398 182.118 91.8564 182.059 91.8564 182.005C91.8564 181.927 91.8404 181.858 91.8085 181.798C91.7766 181.736 91.7318 181.689 91.6739 181.654C91.616 181.619 91.5481 181.601 91.4701 181.601C91.3886 181.601 91.3166 181.62 91.254 181.658C91.1925 181.694 91.1447 181.743 91.1104 181.805C91.0762 181.865 91.0602 181.931 91.0626 182.002H90.5665C90.5665 181.827 90.6049 181.676 90.6817 181.548C90.7584 181.42 90.8653 181.322 91.0024 181.252C91.1394 181.182 91.2988 181.148 91.4808 181.148C91.6473 181.148 91.7961 181.184 91.9273 181.257C92.0595 181.329 92.1635 181.43 92.2391 181.56C92.3147 181.69 92.3525 181.841 92.3525 182.012C92.3525 182.139 92.3348 182.244 92.2993 182.328C92.2639 182.41 92.2113 182.487 92.1416 182.558C92.0719 182.628 91.9863 182.707 91.8847 182.795L91.1937 183.401L91.1547 183.295H92.3525V183.749H90.5665ZM92.9036 183.752L93.7611 181.654H92.6697V181.201H94.2785V181.654L93.4245 183.752H92.9036Z" fill="#464D4F"/>
<g clip-path="url(#clip1_81_18085)">
<path d="M48.0463 194.368C47.9587 194.368 47.8731 194.342 47.8003 194.294C47.7275 194.245 47.6707 194.176 47.6372 194.095C47.6037 194.014 47.5949 193.925 47.612 193.839C47.6291 193.753 47.6712 193.674 47.7332 193.612C47.7951 193.55 47.874 193.508 47.9599 193.491C48.0458 193.474 48.1349 193.483 48.2158 193.516C48.2967 193.55 48.3659 193.607 48.4146 193.68C48.4632 193.752 48.4892 193.838 48.4892 193.926C48.4892 194.043 48.4425 194.156 48.3595 194.239C48.2764 194.322 48.1638 194.368 48.0463 194.368ZM52.3643 197.951C53.2953 196.816 53.8041 195.394 53.8041 193.926C53.8041 192.458 53.2953 191.035 52.3643 189.9C52.3397 189.87 52.3094 189.845 52.2752 189.827C52.2409 189.809 52.2035 189.797 52.1649 189.793C52.1263 189.79 52.0873 189.793 52.0502 189.805C52.013 189.816 51.9785 189.834 51.9485 189.859C51.9186 189.884 51.8937 189.914 51.8755 189.948C51.8572 189.982 51.8458 190.02 51.842 190.059C51.8344 190.137 51.858 190.214 51.9078 190.275C52.7519 191.304 53.2132 192.594 53.2132 193.926C53.2132 195.257 52.7519 196.547 51.9078 197.576C51.858 197.637 51.8344 197.715 51.842 197.793C51.8497 197.871 51.888 197.942 51.9485 197.992C52.0091 198.042 52.0869 198.065 52.1649 198.058C52.2428 198.05 52.3146 198.012 52.3643 197.951ZM51.0442 196.767C51.6843 195.959 52.0325 194.958 52.0325 193.927C52.0325 192.895 51.6843 191.895 51.0442 191.086C50.9955 191.025 50.9245 190.985 50.8467 190.976C50.7689 190.967 50.6907 190.989 50.6294 191.038C50.568 191.087 50.5284 191.158 50.5195 191.236C50.5105 191.313 50.5327 191.392 50.5814 191.453C51.1387 192.157 51.442 193.029 51.442 193.927C51.442 194.825 51.1387 195.696 50.5814 196.4C50.5573 196.431 50.5394 196.466 50.5288 196.503C50.5182 196.54 50.515 196.579 50.5194 196.618C50.5239 196.656 50.5359 196.694 50.5548 196.727C50.5736 196.761 50.599 196.791 50.6294 196.815C50.6597 196.839 50.6946 196.857 50.7319 196.868C50.7692 196.878 50.8082 196.882 50.8467 196.877C50.8852 196.873 50.9225 196.861 50.9564 196.842C50.9902 196.823 51.0201 196.798 51.0442 196.767ZM49.7244 195.577C50.073 195.097 50.2607 194.52 50.2607 193.927C50.2607 193.334 50.073 192.756 49.7244 192.277C49.6783 192.213 49.609 192.171 49.5316 192.159C49.4542 192.147 49.3751 192.166 49.3118 192.212C49.2485 192.258 49.2061 192.327 49.1939 192.405C49.1817 192.482 49.2008 192.561 49.2469 192.624C49.5221 193.003 49.6704 193.459 49.6704 193.927C49.6704 194.395 49.5221 194.851 49.2469 195.229C49.224 195.26 49.2076 195.296 49.1985 195.334C49.1894 195.371 49.1879 195.411 49.1939 195.449C49.1999 195.487 49.2134 195.524 49.2337 195.557C49.2539 195.59 49.2805 195.619 49.3118 195.642C49.3432 195.664 49.3787 195.681 49.4164 195.69C49.4541 195.699 49.4933 195.701 49.5316 195.695C49.5699 195.689 49.6066 195.675 49.6397 195.655C49.6728 195.635 49.7016 195.608 49.7244 195.577Z" fill="#464D4F"/>
</g>
<ellipse opacity="0.9" cx="84.2504" cy="193.927" rx="4.72483" ry="4.72483" fill="#E53943"/>
<ellipse opacity="0.9" cx="89.7627" cy="193.926" rx="4.72483" ry="4.72483" fill="#F4A940"/>
<g clip-path="url(#clip2_81_18085)">
<path d="M35.3487 190.283V197.678C35.3487 198.244 35.809 198.705 36.3748 198.705H41.6996C42.2654 198.705 42.7258 198.244 42.7258 197.678V190.283C42.7258 189.717 42.2654 189.257 41.6996 189.257H36.3748C35.809 189.257 35.3487 189.717 35.3487 190.283ZM38.8986 190.126V192.363H37.8539C37.7673 192.363 37.6968 192.292 37.6968 192.206V190.126H38.8986ZM39.1759 192.363V190.126H40.3777V192.363H39.1759ZM38.4363 189.848V189.534H39.6381V189.848H38.4363ZM38.159 189.848H36.9572V189.534H38.159V189.848ZM37.4195 190.126V192.206C37.4195 192.445 37.6144 192.64 37.8539 192.64H41.8568V195.321H36.2177V190.283C36.2177 190.196 36.2882 190.126 36.3748 190.126H37.4195ZM38.8986 195.598V197.836H37.6968V195.598H38.8986ZM39.6381 198.113V198.427H38.4363V198.113H39.6381ZM39.1759 197.836V195.598H40.3777V197.836H39.1759ZM35.9403 193.842H35.626V191.309H35.9403V193.842ZM35.9403 194.119V196.652H35.626V194.119H35.9403ZM36.2177 195.598H37.4195V197.836H36.3748C36.2882 197.836 36.2177 197.765 36.2177 197.678V195.598ZM38.159 198.113V198.427H36.9572V198.113H38.159ZM39.9155 198.427V198.113H41.1172V198.427H39.9155ZM40.655 197.836V195.598H41.8568V197.678C41.8568 197.765 41.7863 197.836 41.6996 197.836H40.655ZM42.1341 194.119H42.4484V196.652H42.1341V194.119ZM42.1341 193.842V191.309H42.4484V193.842H42.1341ZM41.8568 192.363H40.655V190.126H41.6996C41.7863 190.126 41.8568 190.196 41.8568 190.283V192.363ZM39.9155 189.848V189.534H41.1172V189.848H39.9155ZM36.3748 189.534H36.6799V189.848H36.3748C36.1352 189.848 35.9403 190.043 35.9403 190.283V191.032H35.626V190.283C35.626 189.87 35.9619 189.534 36.3748 189.534ZM35.626 197.678V196.93H35.9403V197.678C35.9403 197.918 36.1352 198.113 36.3748 198.113H36.6799V198.427H36.3748C35.9619 198.427 35.626 198.091 35.626 197.678ZM41.6996 198.427H41.3946V198.113H41.6996C41.9392 198.113 42.1341 197.918 42.1341 197.678V196.93H42.4484V197.678C42.4484 198.091 42.1125 198.427 41.6996 198.427ZM42.4484 190.283V191.032H42.1341V190.283C42.1341 190.043 41.9392 189.848 41.6996 189.848H41.3946V189.534H41.6996C42.1125 189.534 42.4484 189.87 42.4484 190.283Z" fill="#464D4F"/>
</g>
<path d="M36.3332 177.883V175.782H35.5288V175.332H37.6196V175.782H36.8152V177.883H36.3332ZM39.6053 177.883V175.332H41.2708V175.782H40.0872V176.327H41.0581V176.777H40.0872V177.433H41.2708V177.883H39.6053ZM43.2192 177.883L43.9988 175.332H44.7182L45.4978 177.883H45.0016L44.3071 175.633H44.3992L43.7153 177.883H43.2192ZM43.687 177.351V176.901H45.0335V177.351H43.687ZM47.5517 177.883V175.332H48.0336V177.433H49.1322V177.883H47.5517Z" fill="#464D4F"/>
<path d="M49.4389 149.424V141.261H52.8854C52.9648 141.261 53.0706 141.265 53.2029 141.272C53.3389 141.276 53.4599 141.287 53.5657 141.306C54.0532 141.382 54.4519 141.542 54.7618 141.788C55.0755 142.034 55.306 142.344 55.4534 142.718C55.6008 143.088 55.6744 143.502 55.6744 143.959C55.6744 144.416 55.5989 144.832 55.4477 145.206C55.3003 145.577 55.0698 145.885 54.7561 146.13C54.4462 146.376 54.0494 146.537 53.5657 146.612C53.4599 146.627 53.3389 146.639 53.2029 146.646C53.0668 146.654 52.961 146.658 52.8854 146.658H50.9808V149.424H49.4389ZM50.9808 145.218H52.8174C52.8968 145.218 52.9837 145.214 53.0782 145.206C53.1727 145.199 53.2596 145.184 53.3389 145.161C53.5468 145.104 53.7074 145.01 53.8208 144.878C53.9342 144.741 54.0116 144.592 54.0532 144.43C54.0985 144.263 54.1212 144.107 54.1212 143.959C54.1212 143.812 54.0985 143.657 54.0532 143.494C54.0116 143.328 53.9342 143.179 53.8208 143.047C53.7074 142.91 53.5468 142.814 53.3389 142.757C53.2596 142.735 53.1727 142.72 53.0782 142.712C52.9837 142.705 52.8968 142.701 52.8174 142.701H50.9808V145.218ZM58.3914 149.594C57.9531 149.594 57.5808 149.511 57.2747 149.344C56.9724 149.174 56.7418 148.95 56.5831 148.67C56.4282 148.386 56.3507 148.075 56.3507 147.735C56.3507 147.451 56.3942 147.192 56.4811 146.958C56.568 146.724 56.7078 146.518 56.9006 146.34C57.0971 146.159 57.3597 146.007 57.6885 145.887C57.9153 145.803 58.1855 145.73 58.4991 145.665C58.8128 145.601 59.168 145.541 59.5649 145.484C59.9617 145.424 60.3982 145.357 60.8743 145.286L60.3188 145.592C60.3188 145.229 60.2319 144.963 60.058 144.793C59.8842 144.622 59.5932 144.537 59.1851 144.537C58.9583 144.537 58.7221 144.592 58.4765 144.702C58.2308 144.811 58.0589 145.006 57.9606 145.286L56.5661 144.844C56.7211 144.337 57.0121 143.925 57.4391 143.608C57.8661 143.29 58.4481 143.132 59.1851 143.132C59.7255 143.132 60.2054 143.215 60.6249 143.381C61.0444 143.547 61.3618 143.834 61.5772 144.243C61.6982 144.469 61.77 144.696 61.7927 144.923C61.8153 145.15 61.8267 145.403 61.8267 145.682V149.424H60.4775V148.165L60.6703 148.426C60.3717 148.838 60.0486 149.137 59.7009 149.322C59.357 149.503 58.9205 149.594 58.3914 149.594ZM58.7202 148.381C59.0037 148.381 59.2417 148.332 59.4345 148.233C59.631 148.131 59.7859 148.016 59.8993 147.888C60.0165 147.759 60.0958 147.651 60.1374 147.564C60.2168 147.398 60.2621 147.205 60.2734 146.986C60.2886 146.763 60.2961 146.578 60.2961 146.431L60.7496 146.544C60.2923 146.62 59.922 146.684 59.6385 146.737C59.3551 146.786 59.1265 146.831 58.9526 146.873C58.7788 146.914 58.6257 146.96 58.4935 147.009C58.3423 147.069 58.2195 147.136 58.125 147.207C58.0343 147.275 57.9663 147.351 57.9209 147.434C57.8794 147.517 57.8586 147.61 57.8586 147.712C57.8586 147.852 57.8926 147.973 57.9606 148.075C58.0324 148.173 58.1326 148.249 58.2611 148.301C58.3895 148.354 58.5426 148.381 58.7202 148.381ZM63.3006 149.424V143.302H64.6611V144.798L64.5137 144.605C64.5931 144.394 64.6989 144.201 64.8312 144.027C64.9634 143.853 65.1259 143.71 65.3187 143.596C65.4661 143.506 65.6267 143.436 65.8005 143.387C65.9743 143.334 66.1539 143.302 66.339 143.29C66.5242 143.275 66.7094 143.279 66.8946 143.302V144.741C66.7245 144.689 66.5261 144.672 66.2994 144.69C66.0764 144.706 65.8742 144.757 65.6928 144.844C65.5114 144.927 65.3584 145.038 65.2336 145.178C65.1089 145.314 65.0144 145.477 64.9502 145.665C64.886 145.851 64.8538 146.06 64.8538 146.295V149.424H63.3006ZM69.5517 149.594C69.1133 149.594 68.7411 149.511 68.4349 149.344C68.1326 149.174 67.9021 148.95 67.7434 148.67C67.5884 148.386 67.5109 148.075 67.5109 147.735C67.5109 147.451 67.5544 147.192 67.6413 146.958C67.7282 146.724 67.8681 146.518 68.0608 146.34C68.2573 146.159 68.52 146.007 68.8488 145.887C69.0755 145.803 69.3457 145.73 69.6594 145.665C69.9731 145.601 70.3283 145.541 70.7251 145.484C71.1219 145.424 71.5584 145.357 72.0346 145.286L71.479 145.592C71.479 145.229 71.3921 144.963 71.2183 144.793C71.0444 144.622 70.7534 144.537 70.3453 144.537C70.1185 144.537 69.8824 144.592 69.6367 144.702C69.3911 144.811 69.2191 145.006 69.1209 145.286L67.7264 144.844C67.8813 144.337 68.1723 143.925 68.5993 143.608C69.0264 143.29 69.6084 143.132 70.3453 143.132C70.8857 143.132 71.3657 143.215 71.7851 143.381C72.2046 143.547 72.5221 143.834 72.7375 144.243C72.8584 144.469 72.9302 144.696 72.9529 144.923C72.9756 145.15 72.9869 145.403 72.9869 145.682V149.424H71.6378V148.165L71.8305 148.426C71.5319 148.838 71.2088 149.137 70.8611 149.322C70.5172 149.503 70.0808 149.594 69.5517 149.594ZM69.8805 148.381C70.1639 148.381 70.402 148.332 70.5947 148.233C70.7912 148.131 70.9462 148.016 71.0596 147.888C71.1767 147.759 71.2561 147.651 71.2976 147.564C71.377 147.398 71.4223 147.205 71.4337 146.986C71.4488 146.763 71.4564 146.578 71.4564 146.431L71.9099 146.544C71.4526 146.62 71.0822 146.684 70.7988 146.737C70.5154 146.786 70.2867 146.831 70.1129 146.873C69.939 146.914 69.786 146.96 69.6537 147.009C69.5026 147.069 69.3797 147.136 69.2853 147.207C69.1946 147.275 69.1265 147.351 69.0812 147.434C69.0396 147.517 69.0188 147.61 69.0188 147.712C69.0188 147.852 69.0528 147.973 69.1209 148.075C69.1927 148.173 69.2928 148.249 69.4213 148.301C69.5498 148.354 69.7028 148.381 69.8805 148.381ZM77.4653 149.594C76.8568 149.594 76.3485 149.452 75.9404 149.169C75.5322 148.885 75.2242 148.5 75.0164 148.012C74.8123 147.525 74.7103 146.975 74.7103 146.363C74.7103 145.751 74.8123 145.201 75.0164 144.713C75.2205 144.226 75.5209 143.84 75.9177 143.557C76.3145 143.273 76.8039 143.132 77.3859 143.132C77.9717 143.132 78.4819 143.271 78.9165 143.551C79.3511 143.831 79.6874 144.214 79.9255 144.702C80.1673 145.186 80.2883 145.739 80.2883 146.363C80.2883 146.975 80.1692 147.525 79.9312 148.012C79.6968 148.5 79.3681 148.885 78.9448 149.169C78.5215 149.452 78.0284 149.594 77.4653 149.594ZM74.4495 152.145V143.302H75.81V147.496H76.0027V152.145H74.4495ZM77.2158 148.222C77.5484 148.222 77.8205 148.139 78.0321 147.973C78.2438 147.806 78.4006 147.583 78.5026 147.304C78.6047 147.02 78.6557 146.707 78.6557 146.363C78.6557 146.023 78.6028 145.713 78.497 145.433C78.3912 145.15 78.2268 144.925 78.0038 144.758C77.7846 144.588 77.5031 144.503 77.1592 144.503C76.8379 144.503 76.5772 144.581 76.3769 144.736C76.1804 144.891 76.0368 145.108 75.9461 145.388C75.8554 145.667 75.81 145.992 75.81 146.363C75.81 146.733 75.8554 147.058 75.9461 147.338C76.0368 147.617 76.1841 147.835 76.3882 147.99C76.5961 148.145 76.8719 148.222 77.2158 148.222Z" fill="#464D4F"/>
<circle cx="64.4273" cy="118.082" r="11.8004" transform="rotate(-0.0456795 64.4273 118.082)" fill="url(#paint1_linear_81_18085)"/>
<g filter="url(#filter3_d_81_18085)">
<rect x="63.3877" y="112.885" width="2.95245" height="11.1012" rx="1.47622" transform="rotate(33 63.3877 112.885)" fill="white"/>
</g>
<g filter="url(#filter4_d_81_18085)">
<rect x="69.048" y="112.354" width="2.95245" height="8.26685" rx="1.47622" transform="rotate(33 69.048 112.354)" fill="white"/>
</g>
<rect x="290.604" y="90.0334" width="69.8075" height="114.26" rx="7.08725" fill="#E7E7E7"/>
<path d="M336.234 177.936C335.979 177.936 335.758 177.881 335.573 177.77C335.389 177.659 335.246 177.503 335.146 177.304C335.047 177.104 334.997 176.872 334.997 176.607C334.997 176.343 335.047 176.111 335.146 175.911C335.246 175.711 335.389 175.556 335.573 175.445C335.758 175.334 335.979 175.278 336.234 175.278C336.489 175.278 336.709 175.334 336.893 175.445C337.078 175.556 337.221 175.711 337.32 175.911C337.42 176.111 337.471 176.343 337.471 176.607C337.471 176.872 337.42 177.104 337.32 177.304C337.221 177.503 337.078 177.659 336.893 177.77C336.709 177.881 336.489 177.936 336.234 177.936ZM336.234 177.483C336.396 177.485 336.53 177.45 336.638 177.378C336.745 177.306 336.826 177.204 336.879 177.071C336.933 176.939 336.96 176.784 336.96 176.607C336.96 176.43 336.933 176.276 336.879 176.147C336.826 176.017 336.745 175.916 336.638 175.844C336.53 175.772 336.396 175.734 336.234 175.732C336.072 175.73 335.937 175.764 335.83 175.836C335.722 175.909 335.641 176.011 335.587 176.143C335.534 176.275 335.507 176.43 335.507 176.607C335.507 176.784 335.534 176.938 335.587 177.068C335.641 177.198 335.722 177.299 335.83 177.371C335.937 177.443 336.072 177.48 336.234 177.483ZM338.898 175.119C338.794 175.119 338.699 175.094 338.614 175.043C338.529 174.992 338.461 174.924 338.411 174.839C338.36 174.754 338.334 174.659 338.334 174.555H338.707C338.707 174.609 338.725 174.654 338.761 174.692C338.799 174.729 338.845 174.747 338.898 174.747C338.951 174.747 338.996 174.729 339.033 174.692C339.07 174.654 339.089 174.609 339.089 174.555H339.461C339.461 174.659 339.436 174.754 339.385 174.839C339.334 174.924 339.266 174.992 339.181 175.043C339.096 175.094 339.002 175.119 338.898 175.119ZM338.887 177.936C338.727 177.936 338.574 177.908 338.428 177.851C338.283 177.793 338.154 177.708 338.042 177.596C337.931 177.484 337.843 177.345 337.778 177.18C337.714 177.014 337.682 176.823 337.682 176.607C337.682 176.325 337.736 176.085 337.844 175.888C337.952 175.689 338.098 175.538 338.28 175.434C338.463 175.33 338.665 175.278 338.887 175.278C339.216 175.278 339.474 175.355 339.662 175.507C339.849 175.659 339.975 175.875 340.039 176.154L339.546 176.225C339.5 176.076 339.425 175.957 339.32 175.868C339.216 175.779 339.082 175.733 338.919 175.732C338.757 175.73 338.623 175.764 338.515 175.836C338.408 175.909 338.327 176.011 338.272 176.143C338.219 176.275 338.193 176.43 338.193 176.607C338.193 176.784 338.219 176.938 338.272 177.068C338.327 177.198 338.408 177.299 338.515 177.371C338.623 177.443 338.757 177.48 338.919 177.483C339.029 177.485 339.128 177.466 339.217 177.426C339.307 177.386 339.382 177.322 339.444 177.236C339.505 177.15 339.549 177.04 339.575 176.905H339.171V176.533H340.089C340.091 176.548 340.093 176.575 340.094 176.614C340.095 176.653 340.096 176.676 340.096 176.682C340.096 176.926 340.046 177.143 339.947 177.332C339.848 177.521 339.708 177.669 339.527 177.777C339.346 177.883 339.133 177.936 338.887 177.936ZM341.489 177.936C341.284 177.936 341.103 177.895 340.947 177.812C340.791 177.728 340.669 177.611 340.582 177.459C340.494 177.308 340.451 177.131 340.451 176.926V175.335L340.94 175.332V176.923C340.94 177.006 340.954 177.083 340.982 177.151C341.011 177.22 341.05 177.279 341.099 177.328C341.15 177.378 341.209 177.416 341.275 177.444C341.342 177.47 341.413 177.483 341.489 177.483C341.567 177.483 341.639 177.469 341.705 177.442C341.773 177.415 341.831 177.376 341.881 177.327C341.93 177.277 341.969 177.218 341.996 177.149C342.024 177.081 342.038 177.005 342.038 176.923V175.332H342.527V176.926C342.527 177.131 342.484 177.308 342.396 177.459C342.309 177.611 342.187 177.728 342.031 177.812C341.875 177.895 341.695 177.936 341.489 177.936ZM342.951 177.883V177.823L344.163 175.782H343.057V175.332H345.006V175.392L343.802 177.429H344.971V177.883H342.951ZM347.341 175.062V174.637H347.766V175.062H347.341ZM346.59 175.062V174.637H347.015V175.062H346.59ZM347.178 177.936C346.973 177.936 346.792 177.895 346.636 177.812C346.48 177.728 346.358 177.611 346.271 177.459C346.184 177.308 346.14 177.131 346.14 176.926V175.335L346.629 175.332V176.923C346.629 177.006 346.643 177.083 346.671 177.151C346.7 177.22 346.739 177.279 346.788 177.328C346.839 177.378 346.898 177.416 346.964 177.444C347.031 177.47 347.103 177.483 347.178 177.483C347.256 177.483 347.328 177.469 347.394 177.442C347.462 177.415 347.52 177.376 347.57 177.327C347.619 177.277 347.658 177.218 347.685 177.149C347.713 177.081 347.727 177.005 347.727 176.923V175.332H348.217V176.926C348.217 177.131 348.173 177.308 348.085 177.459C347.998 177.611 347.876 177.728 347.72 177.812C347.564 177.895 347.384 177.936 347.178 177.936ZM348.711 177.883V175.332H349.2L350.309 177.032V175.332H350.798V177.883H350.309L349.2 176.182V177.883H348.711ZM351.116 177.883L351.895 175.332H352.615L353.394 177.883H352.898L352.203 175.633H352.296L351.612 177.883H351.116ZM351.583 177.351V176.901H352.93V177.351H351.583ZM353.747 177.883V175.332H354.229V177.433H355.328V177.883H353.747Z" fill="#8A969F"/>
<path d="M346.418 183.805C346.229 183.805 346.064 183.766 345.922 183.687C345.781 183.607 345.67 183.497 345.591 183.355C345.512 183.214 345.472 183.048 345.472 182.859V182.094C345.472 181.905 345.512 181.739 345.591 181.598C345.67 181.456 345.781 181.345 345.922 181.266C346.064 181.187 346.229 181.148 346.418 181.148C346.607 181.148 346.773 181.187 346.915 181.266C347.056 181.345 347.167 181.456 347.246 181.598C347.325 181.739 347.365 181.905 347.365 182.094V182.859C347.365 183.048 347.325 183.214 347.246 183.355C347.167 183.497 347.056 183.607 346.915 183.687C346.773 183.766 346.607 183.805 346.418 183.805ZM346.418 183.348C346.503 183.348 346.58 183.328 346.649 183.288C346.717 183.248 346.772 183.193 346.812 183.125C346.852 183.056 346.872 182.98 346.872 182.895V182.055C346.872 181.97 346.852 181.893 346.812 181.824C346.772 181.756 346.717 181.702 346.649 181.661C346.58 181.621 346.503 181.601 346.418 181.601C346.333 181.601 346.257 181.621 346.188 181.661C346.12 181.702 346.065 181.756 346.025 181.824C345.985 181.893 345.965 181.97 345.965 182.055V182.895C345.965 182.98 345.985 183.056 346.025 183.125C346.065 183.193 346.12 183.248 346.188 183.288C346.257 183.328 346.333 183.348 346.418 183.348ZM348.679 181.151C348.848 181.151 348.999 181.191 349.132 181.27C349.267 181.349 349.373 181.459 349.451 181.601C349.529 181.742 349.568 181.905 349.568 182.09V182.831C349.568 183.032 349.529 183.205 349.451 183.352C349.373 183.497 349.263 183.609 349.122 183.688C348.98 183.766 348.813 183.805 348.622 183.805C348.498 183.805 348.38 183.787 348.268 183.75C348.157 183.713 348.054 183.651 347.959 183.564L348.303 183.221C348.346 183.263 348.395 183.296 348.45 183.32C348.507 183.343 348.564 183.355 348.622 183.355C348.714 183.355 348.794 183.334 348.861 183.292C348.93 183.248 348.982 183.192 349.019 183.123C349.057 183.054 349.076 182.98 349.076 182.902V182.523L349.157 182.611C349.085 182.686 349.001 182.743 348.904 182.783C348.807 182.822 348.707 182.841 348.604 182.841C348.444 182.841 348.302 182.805 348.179 182.733C348.057 182.661 347.962 182.563 347.892 182.438C347.823 182.312 347.789 182.169 347.789 182.009C347.789 181.848 347.83 181.703 347.911 181.575C347.993 181.445 348.101 181.342 348.236 181.266C348.37 181.19 348.518 181.151 348.679 181.151ZM348.679 181.612C348.605 181.612 348.538 181.63 348.477 181.665C348.416 181.7 348.368 181.748 348.331 181.809C348.296 181.869 348.278 181.935 348.278 182.009C348.278 182.082 348.296 182.149 348.331 182.211C348.367 182.271 348.415 182.319 348.475 182.356C348.535 182.391 348.602 182.409 348.675 182.409C348.748 182.409 348.815 182.391 348.875 182.356C348.937 182.319 348.985 182.271 349.021 182.211C349.057 182.149 349.076 182.082 349.076 182.009C349.076 181.938 349.058 181.872 349.022 181.812C348.987 181.752 348.939 181.703 348.879 181.667C348.819 181.63 348.752 181.612 348.679 181.612ZM350.709 181.201H351.191L350.511 183.752H350.029L350.709 181.201ZM351.582 183.749V183.331L352.652 182.381C352.732 182.31 352.789 182.243 352.822 182.181C352.855 182.118 352.872 182.06 352.872 182.005C352.872 181.927 352.856 181.858 352.824 181.798C352.792 181.736 352.747 181.689 352.689 181.654C352.632 181.619 352.564 181.601 352.486 181.601C352.404 181.601 352.332 181.62 352.269 181.658C352.208 181.695 352.16 181.744 352.126 181.805C352.092 181.865 352.076 181.931 352.078 182.002H351.582C351.582 181.827 351.62 181.676 351.697 181.548C351.774 181.42 351.881 181.322 352.018 181.252C352.155 181.182 352.314 181.148 352.496 181.148C352.663 181.148 352.812 181.184 352.943 181.257C353.075 181.33 353.179 181.431 353.255 181.56C353.33 181.69 353.368 181.841 353.368 182.012C353.368 182.139 353.35 182.244 353.315 182.328C353.279 182.41 353.227 182.487 353.157 182.558C353.087 182.628 353.002 182.707 352.9 182.795L352.209 183.401L352.17 183.295H353.368V183.749H351.582ZM353.919 183.752L354.777 181.654H353.685V181.201H355.294V181.654L354.44 183.752H353.919Z" fill="#8A969F"/>
<g clip-path="url(#clip3_81_18085)">
<path d="M309.061 194.368C308.974 194.368 308.888 194.342 308.815 194.294C308.743 194.245 308.686 194.176 308.652 194.095C308.619 194.014 308.61 193.925 308.627 193.839C308.644 193.753 308.686 193.674 308.748 193.612C308.81 193.55 308.889 193.508 308.975 193.491C309.061 193.474 309.15 193.483 309.231 193.516C309.312 193.55 309.381 193.607 309.43 193.68C309.478 193.752 309.504 193.838 309.504 193.926C309.504 194.043 309.458 194.156 309.375 194.239C309.292 194.322 309.179 194.368 309.061 194.368ZM313.379 197.951C314.31 196.816 314.819 195.394 314.819 193.926C314.819 192.458 314.31 191.035 313.379 189.9C313.355 189.87 313.325 189.845 313.29 189.827C313.256 189.809 313.219 189.797 313.18 189.793C313.141 189.79 313.102 189.793 313.065 189.805C313.028 189.816 312.994 189.834 312.964 189.859C312.934 189.884 312.909 189.914 312.891 189.948C312.872 189.982 312.861 190.02 312.857 190.059C312.85 190.137 312.873 190.214 312.923 190.275C313.767 191.304 314.228 192.594 314.228 193.926C314.228 195.257 313.767 196.547 312.923 197.576C312.873 197.637 312.85 197.715 312.857 197.793C312.865 197.871 312.903 197.942 312.964 197.992C313.024 198.042 313.102 198.065 313.18 198.058C313.258 198.05 313.33 198.012 313.379 197.951ZM312.059 196.767C312.699 195.959 313.048 194.958 313.048 193.927C313.048 192.895 312.699 191.895 312.059 191.086C312.011 191.025 311.94 190.985 311.862 190.976C311.784 190.967 311.706 190.989 311.644 191.038C311.583 191.087 311.544 191.158 311.535 191.236C311.526 191.313 311.548 191.392 311.597 191.453C312.154 192.157 312.457 193.029 312.457 193.927C312.457 194.825 312.154 195.696 311.597 196.4C311.572 196.431 311.555 196.466 311.544 196.503C311.533 196.54 311.53 196.579 311.535 196.618C311.539 196.656 311.551 196.694 311.57 196.727C311.589 196.761 311.614 196.791 311.644 196.815C311.675 196.839 311.71 196.857 311.747 196.868C311.784 196.878 311.823 196.882 311.862 196.877C311.9 196.873 311.938 196.861 311.972 196.842C312.005 196.823 312.035 196.798 312.059 196.767ZM310.74 195.577C311.088 195.097 311.276 194.52 311.276 193.927C311.276 193.334 311.088 192.756 310.74 192.277C310.693 192.213 310.624 192.171 310.547 192.159C310.469 192.147 310.39 192.166 310.327 192.212C310.264 192.258 310.221 192.327 310.209 192.405C310.197 192.482 310.216 192.561 310.262 192.624C310.537 193.003 310.686 193.459 310.686 193.927C310.686 194.395 310.537 194.851 310.262 195.229C310.239 195.26 310.223 195.296 310.214 195.334C310.205 195.371 310.203 195.411 310.209 195.449C310.215 195.487 310.229 195.524 310.249 195.557C310.269 195.59 310.296 195.619 310.327 195.642C310.358 195.664 310.394 195.681 310.432 195.69C310.469 195.699 310.508 195.701 310.547 195.695C310.585 195.689 310.622 195.675 310.655 195.655C310.688 195.635 310.717 195.608 310.74 195.577Z" fill="#8A969F"/>
</g>
<ellipse opacity="0.9" cx="345.265" cy="193.927" rx="4.72483" ry="4.72483" fill="#E53943"/>
<ellipse opacity="0.9" cx="350.778" cy="193.926" rx="4.72483" ry="4.72483" fill="#F4A940"/>
<g clip-path="url(#clip4_81_18085)">
<path d="M296.364 190.283V197.678C296.364 198.244 296.824 198.705 297.39 198.705H302.715C303.281 198.705 303.741 198.244 303.741 197.678V190.283C303.741 189.717 303.281 189.257 302.715 189.257H297.39C296.824 189.257 296.364 189.717 296.364 190.283ZM299.914 190.126V192.363H298.869C298.782 192.363 298.712 192.292 298.712 192.206V190.126H299.914ZM300.191 192.363V190.126H301.393V192.363H300.191ZM299.452 189.848V189.534H300.653V189.848H299.452ZM299.174 189.848H297.972V189.534H299.174V189.848ZM298.435 190.126V192.206C298.435 192.445 298.63 192.64 298.869 192.64H302.872V195.321H297.233V190.283C297.233 190.196 297.303 190.126 297.39 190.126H298.435ZM299.914 195.598V197.836H298.712V195.598H299.914ZM300.653 198.113V198.427H299.452V198.113H300.653ZM300.191 197.836V195.598H301.393V197.836H300.191ZM296.956 193.842H296.641V191.309H296.956V193.842ZM296.956 194.119V196.652H296.641V194.119H296.956ZM297.233 195.598H298.435V197.836H297.39C297.303 197.836 297.233 197.765 297.233 197.678V195.598ZM299.174 198.113V198.427H297.972V198.113H299.174ZM300.931 198.427V198.113H302.132V198.427H300.931ZM301.67 197.836V195.598H302.872V197.678C302.872 197.765 302.801 197.836 302.715 197.836H301.67ZM303.149 194.119H303.464V196.652H303.149V194.119ZM303.149 193.842V191.309H303.464V193.842H303.149ZM302.872 192.363H301.67V190.126H302.715C302.801 190.126 302.872 190.196 302.872 190.283V192.363ZM300.931 189.848V189.534H302.132V189.848H300.931ZM297.39 189.534H297.695V189.848H297.39C297.15 189.848 296.956 190.043 296.956 190.283V191.032H296.641V190.283C296.641 189.87 296.977 189.534 297.39 189.534ZM296.641 197.678V196.93H296.956V197.678C296.956 197.918 297.15 198.113 297.39 198.113H297.695V198.427H297.39C296.977 198.427 296.641 198.091 296.641 197.678ZM302.715 198.427H302.41V198.113H302.715C302.954 198.113 303.149 197.918 303.149 197.678V196.93H303.464V197.678C303.464 198.091 303.128 198.427 302.715 198.427ZM303.464 190.283V191.032H303.149V190.283C303.149 190.043 302.954 189.848 302.715 189.848H302.41V189.534H302.715C303.128 189.534 303.464 189.87 303.464 190.283Z" fill="#8A969F"/>
</g>
<path d="M297.82 177.936C297.659 177.936 297.506 177.908 297.361 177.851C297.216 177.793 297.087 177.708 296.975 177.596C296.864 177.484 296.776 177.345 296.711 177.18C296.647 177.014 296.615 176.823 296.615 176.607C296.615 176.325 296.669 176.085 296.776 175.888C296.885 175.689 297.03 175.538 297.212 175.434C297.395 175.33 297.598 175.278 297.82 175.278C298.148 175.278 298.407 175.355 298.594 175.507C298.782 175.659 298.908 175.875 298.972 176.154L298.479 176.225C298.433 176.076 298.358 175.957 298.252 175.868C298.148 175.779 298.015 175.733 297.852 175.732C297.69 175.73 297.555 175.764 297.448 175.836C297.34 175.909 297.26 176.011 297.205 176.143C297.152 176.275 297.126 176.43 297.126 176.607C297.126 176.784 297.152 176.938 297.205 177.068C297.26 177.198 297.34 177.299 297.448 177.371C297.555 177.443 297.69 177.48 297.852 177.483C297.962 177.485 298.061 177.466 298.15 177.426C298.239 177.386 298.315 177.322 298.376 177.236C298.438 177.15 298.482 177.04 298.508 176.905H298.104V176.533H299.021C299.024 176.548 299.025 176.575 299.027 176.614C299.028 176.653 299.028 176.676 299.028 176.682C299.028 176.926 298.979 177.143 298.88 177.332C298.78 177.521 298.64 177.669 298.46 177.777C298.279 177.883 298.066 177.936 297.82 177.936ZM301.084 177.883V175.332H302.162C302.187 175.332 302.22 175.333 302.261 175.335C302.303 175.336 302.341 175.34 302.374 175.346C302.527 175.369 302.651 175.42 302.748 175.496C302.846 175.573 302.918 175.67 302.964 175.787C303.01 175.903 303.033 176.032 303.033 176.175C303.033 176.389 302.98 176.572 302.874 176.724C302.768 176.875 302.601 176.969 302.374 177.004L302.162 177.018H301.566V177.883H301.084ZM302.523 177.883L302.02 176.845L302.516 176.749L303.069 177.883H302.523ZM301.566 176.568H302.14C302.165 176.568 302.192 176.567 302.222 176.565C302.252 176.562 302.279 176.558 302.303 176.551C302.368 176.533 302.419 176.503 302.454 176.462C302.49 176.419 302.514 176.373 302.527 176.322C302.541 176.27 302.548 176.221 302.548 176.175C302.548 176.129 302.541 176.08 302.527 176.03C302.514 175.978 302.49 175.931 302.454 175.89C302.419 175.847 302.368 175.817 302.303 175.799C302.279 175.792 302.252 175.787 302.222 175.785C302.192 175.783 302.165 175.782 302.14 175.782H301.566V176.568ZM304.982 177.883L305.762 175.332H306.481L307.261 177.883H306.765L306.07 175.633H306.162L305.478 177.883H304.982ZM305.45 177.351V176.901H306.797V177.351H305.45ZM309.692 177.883V176.845L308.82 175.332H309.384L309.936 176.292L310.489 175.332H311.053L310.181 176.845V177.883H309.692Z" fill="#9DA6AE"/>
<path d="M310.455 149.424V141.261H313.901C313.98 141.261 314.086 141.265 314.219 141.272C314.355 141.276 314.476 141.287 314.581 141.306C315.069 141.382 315.468 141.542 315.777 141.788C316.091 142.034 316.322 142.344 316.469 142.718C316.616 143.088 316.69 143.502 316.69 143.959C316.69 144.416 316.614 144.832 316.463 145.206C316.316 145.577 316.085 145.885 315.772 146.13C315.462 146.376 315.065 146.537 314.581 146.612C314.476 146.627 314.355 146.639 314.219 146.646C314.082 146.654 313.977 146.658 313.901 146.658H311.996V149.424H310.455ZM311.996 145.218H313.833C313.912 145.218 313.999 145.214 314.094 145.206C314.188 145.199 314.275 145.184 314.355 145.161C314.562 145.104 314.723 145.01 314.836 144.878C314.95 144.741 315.027 144.592 315.069 144.43C315.114 144.263 315.137 144.107 315.137 143.959C315.137 143.812 315.114 143.657 315.069 143.494C315.027 143.328 314.95 143.179 314.836 143.047C314.723 142.91 314.562 142.814 314.355 142.757C314.275 142.735 314.188 142.72 314.094 142.712C313.999 142.705 313.912 142.701 313.833 142.701H311.996V145.218ZM319.407 149.594C318.969 149.594 318.596 149.511 318.29 149.344C317.988 149.174 317.757 148.95 317.599 148.67C317.444 148.386 317.366 148.075 317.366 147.735C317.366 147.451 317.41 147.192 317.497 146.958C317.584 146.724 317.723 146.518 317.916 146.34C318.113 146.159 318.375 146.007 318.704 145.887C318.931 145.803 319.201 145.73 319.515 145.665C319.828 145.601 320.184 145.541 320.58 145.484C320.977 145.424 321.414 145.357 321.89 145.286L321.334 145.592C321.334 145.229 321.247 144.963 321.074 144.793C320.9 144.622 320.609 144.537 320.201 144.537C319.974 144.537 319.738 144.592 319.492 144.702C319.246 144.811 319.074 145.006 318.976 145.286L317.582 144.844C317.737 144.337 318.028 143.925 318.455 143.608C318.882 143.29 319.464 143.132 320.201 143.132C320.741 143.132 321.221 143.215 321.641 143.381C322.06 143.547 322.377 143.834 322.593 144.243C322.714 144.469 322.786 144.696 322.808 144.923C322.831 145.15 322.842 145.403 322.842 145.682V149.424H321.493V148.165L321.686 148.426C321.387 148.838 321.064 149.137 320.717 149.322C320.373 149.503 319.936 149.594 319.407 149.594ZM319.736 148.381C320.019 148.381 320.257 148.332 320.45 148.233C320.647 148.131 320.802 148.016 320.915 147.888C321.032 147.759 321.111 147.651 321.153 147.564C321.232 147.398 321.278 147.205 321.289 146.986C321.304 146.763 321.312 146.578 321.312 146.431L321.765 146.544C321.308 146.62 320.938 146.684 320.654 146.737C320.371 146.786 320.142 146.831 319.968 146.873C319.794 146.914 319.641 146.96 319.509 147.009C319.358 147.069 319.235 147.136 319.141 147.207C319.05 147.275 318.982 147.351 318.937 147.434C318.895 147.517 318.874 147.61 318.874 147.712C318.874 147.852 318.908 147.973 318.976 148.075C319.048 148.173 319.148 148.249 319.277 148.301C319.405 148.354 319.558 148.381 319.736 148.381ZM324.316 149.424V143.302H325.677V144.798L325.529 144.605C325.609 144.394 325.715 144.201 325.847 144.027C325.979 143.853 326.142 143.71 326.334 143.596C326.482 143.506 326.642 143.436 326.816 143.387C326.99 143.334 327.169 143.302 327.355 143.29C327.54 143.275 327.725 143.279 327.91 143.302V144.741C327.74 144.689 327.542 144.672 327.315 144.69C327.092 144.706 326.89 144.757 326.708 144.844C326.527 144.927 326.374 145.038 326.249 145.178C326.125 145.314 326.03 145.477 325.966 145.665C325.902 145.851 325.869 146.06 325.869 146.295V149.424H324.316ZM330.567 149.594C330.129 149.594 329.757 149.511 329.451 149.344C329.148 149.174 328.918 148.95 328.759 148.67C328.604 148.386 328.527 148.075 328.527 147.735C328.527 147.451 328.57 147.192 328.657 146.958C328.744 146.724 328.884 146.518 329.076 146.34C329.273 146.159 329.536 146.007 329.864 145.887C330.091 145.803 330.361 145.73 330.675 145.665C330.989 145.601 331.344 145.541 331.741 145.484C332.138 145.424 332.574 145.357 333.05 145.286L332.495 145.592C332.495 145.229 332.408 144.963 332.234 144.793C332.06 144.622 331.769 144.537 331.361 144.537C331.134 144.537 330.898 144.592 330.652 144.702C330.407 144.811 330.235 145.006 330.136 145.286L328.742 144.844C328.897 144.337 329.188 143.925 329.615 143.608C330.042 143.29 330.624 143.132 331.361 143.132C331.901 143.132 332.381 143.215 332.801 143.381C333.22 143.547 333.538 143.834 333.753 144.243C333.874 144.469 333.946 144.696 333.969 144.923C333.991 145.15 334.003 145.403 334.003 145.682V149.424H332.653V148.165L332.846 148.426C332.548 148.838 332.224 149.137 331.877 149.322C331.533 149.503 331.096 149.594 330.567 149.594ZM330.896 148.381C331.18 148.381 331.418 148.332 331.61 148.233C331.807 148.131 331.962 148.016 332.075 147.888C332.192 147.759 332.272 147.651 332.313 147.564C332.393 147.398 332.438 147.205 332.449 146.986C332.464 146.763 332.472 146.578 332.472 146.431L332.925 146.544C332.468 146.62 332.098 146.684 331.814 146.737C331.531 146.786 331.302 146.831 331.129 146.873C330.955 146.914 330.802 146.96 330.669 147.009C330.518 147.069 330.395 147.136 330.301 147.207C330.21 147.275 330.142 147.351 330.097 147.434C330.055 147.517 330.034 147.61 330.034 147.712C330.034 147.852 330.068 147.973 330.136 148.075C330.208 148.173 330.308 148.249 330.437 148.301C330.565 148.354 330.718 148.381 330.896 148.381ZM338.481 149.594C337.872 149.594 337.364 149.452 336.956 149.169C336.548 148.885 336.24 148.5 336.032 148.012C335.828 147.525 335.726 146.975 335.726 146.363C335.726 145.751 335.828 145.201 336.032 144.713C336.236 144.226 336.537 143.84 336.933 143.557C337.33 143.273 337.82 143.132 338.402 143.132C338.987 143.132 339.497 143.271 339.932 143.551C340.367 143.831 340.703 144.214 340.941 144.702C341.183 145.186 341.304 145.739 341.304 146.363C341.304 146.975 341.185 147.525 340.947 148.012C340.712 148.5 340.384 148.885 339.96 149.169C339.537 149.452 339.044 149.594 338.481 149.594ZM335.465 152.145V143.302H336.826V147.496H337.018V152.145H335.465ZM338.231 148.222C338.564 148.222 338.836 148.139 339.048 147.973C339.259 147.806 339.416 147.583 339.518 147.304C339.62 147.02 339.671 146.707 339.671 146.363C339.671 146.023 339.618 145.713 339.513 145.433C339.407 145.15 339.242 144.925 339.019 144.758C338.8 144.588 338.519 144.503 338.175 144.503C337.854 144.503 337.593 144.581 337.393 144.736C337.196 144.891 337.052 145.108 336.962 145.388C336.871 145.667 336.826 145.992 336.826 146.363C336.826 146.733 336.871 147.058 336.962 147.338C337.052 147.617 337.2 147.835 337.404 147.99C337.612 148.145 337.888 148.222 338.231 148.222Z" fill="#8A969F"/>
<circle cx="325.443" cy="118.082" r="11.8004" transform="rotate(-0.0456795 325.443 118.082)" fill="url(#paint2_linear_81_18085)"/>
<g filter="url(#filter5_d_81_18085)">
<rect x="324.403" y="112.885" width="2.95245" height="11.1012" rx="1.47622" transform="rotate(33 324.403 112.885)" fill="white"/>
</g>
<g filter="url(#filter6_d_81_18085)">
<rect x="330.063" y="112.354" width="2.95245" height="8.26685" rx="1.47622" transform="rotate(33 330.063 112.354)" fill="white"/>
</g>
<rect x="372.193" y="90.0334" width="69.8075" height="114.26" rx="7.08725" fill="#DFE3F5"/>
<g clip-path="url(#clip5_81_18085)">
<path d="M377.953 190.283V197.678C377.953 198.244 378.413 198.705 378.979 198.705H384.304C384.869 198.705 385.33 198.244 385.33 197.678V190.283C385.33 189.717 384.869 189.257 384.304 189.257H378.979C378.413 189.257 377.953 189.717 377.953 190.283ZM381.503 190.126V192.363H380.458C380.371 192.363 380.301 192.292 380.301 192.206V190.126H381.503ZM381.78 192.363V190.126H382.982V192.363H381.78ZM381.04 189.848V189.534H382.242V189.848H381.04ZM380.763 189.848H379.561V189.534H380.763V189.848ZM380.023 190.126V192.206C380.023 192.445 380.218 192.64 380.458 192.64H384.461V195.321H378.822V190.283C378.822 190.196 378.892 190.126 378.979 190.126H380.023ZM381.503 195.598V197.836H380.301V195.598H381.503ZM382.242 198.113V198.427H381.04V198.113H382.242ZM381.78 197.836V195.598H382.982V197.836H381.78ZM378.544 193.842H378.23V191.309H378.544V193.842ZM378.544 194.119V196.652H378.23V194.119H378.544ZM378.822 195.598H380.023V197.836H378.979C378.892 197.836 378.822 197.765 378.822 197.678V195.598ZM380.763 198.113V198.427H379.561V198.113H380.763ZM382.519 198.427V198.113H383.721V198.427H382.519ZM383.259 197.836V195.598H384.461V197.678C384.461 197.765 384.39 197.836 384.304 197.836H383.259ZM384.738 194.119H385.052V196.652H384.738V194.119ZM384.738 193.842V191.309H385.052V193.842H384.738ZM384.461 192.363H383.259V190.126H384.304C384.39 190.126 384.461 190.196 384.461 190.283V192.363ZM382.519 189.848V189.534H383.721V189.848H382.519ZM378.979 189.534H379.284V189.848H378.979C378.739 189.848 378.544 190.043 378.544 190.283V191.032H378.23V190.283C378.23 189.87 378.566 189.534 378.979 189.534ZM378.23 197.678V196.93H378.544V197.678C378.544 197.918 378.739 198.113 378.979 198.113H379.284V198.427H378.979C378.566 198.427 378.23 198.091 378.23 197.678ZM384.304 198.427H383.999V198.113H384.304C384.543 198.113 384.738 197.918 384.738 197.678V196.93H385.052V197.678C385.052 198.091 384.716 198.427 384.304 198.427ZM385.052 190.283V191.032H384.738V190.283C384.738 190.043 384.543 189.848 384.304 189.848H383.999V189.534H384.304C384.716 189.534 385.052 189.87 385.052 190.283Z" fill="#8379B1"/>
</g>
<path d="M378.346 177.883V175.332H378.778L379.621 177.025L380.465 175.332H380.897V177.883H380.447V176.359L379.706 177.883H379.536L378.796 176.359V177.883H378.346ZM384.059 177.936C383.87 177.936 383.699 177.903 383.547 177.837C383.396 177.77 383.271 177.674 383.173 177.55C383.076 177.425 383.015 177.276 382.989 177.103L383.492 177.029C383.528 177.175 383.601 177.288 383.712 177.367C383.823 177.446 383.949 177.486 384.091 177.486C384.17 177.486 384.247 177.474 384.321 177.449C384.396 177.424 384.457 177.387 384.504 177.339C384.552 177.291 384.577 177.231 384.577 177.16C384.577 177.134 384.572 177.109 384.564 177.086C384.557 177.061 384.545 177.038 384.527 177.017C384.509 176.995 384.484 176.975 384.451 176.956C384.419 176.937 384.378 176.92 384.328 176.905L383.666 176.71C383.616 176.696 383.558 176.676 383.492 176.65C383.427 176.624 383.364 176.587 383.303 176.538C383.241 176.49 383.19 176.426 383.148 176.347C383.108 176.266 383.088 176.165 383.088 176.044C383.088 175.873 383.131 175.73 383.218 175.617C383.304 175.503 383.419 175.419 383.563 175.363C383.707 175.308 383.867 175.281 384.041 175.282C384.217 175.284 384.375 175.314 384.513 175.372C384.651 175.43 384.767 175.515 384.86 175.626C384.953 175.735 385.021 175.87 385.062 176.03L384.541 176.118C384.522 176.036 384.487 175.966 384.437 175.909C384.386 175.852 384.325 175.809 384.254 175.78C384.184 175.75 384.111 175.734 384.034 175.732C383.959 175.73 383.887 175.74 383.82 175.764C383.754 175.786 383.699 175.819 383.657 175.863C383.616 175.907 383.595 175.959 383.595 176.019C383.595 176.075 383.612 176.12 383.646 176.155C383.681 176.19 383.724 176.217 383.776 176.239C383.828 176.26 383.881 176.278 383.935 176.292L384.378 176.412C384.444 176.43 384.517 176.454 384.598 176.483C384.678 176.512 384.755 176.552 384.828 176.604C384.903 176.654 384.963 176.722 385.011 176.806C385.059 176.89 385.083 176.996 385.083 177.125C385.083 177.262 385.054 177.382 384.996 177.484C384.94 177.586 384.863 177.67 384.766 177.738C384.669 177.804 384.559 177.853 384.437 177.886C384.315 177.92 384.189 177.936 384.059 177.936ZM387.174 177.883V175.332H388.194C388.376 175.332 388.523 175.368 388.635 175.441C388.748 175.513 388.83 175.604 388.882 175.714C388.934 175.824 388.96 175.935 388.96 176.047C388.96 176.19 388.927 176.309 388.862 176.403C388.798 176.498 388.71 176.561 388.598 176.593V176.504C388.758 176.538 388.877 176.611 388.956 176.726C389.036 176.841 389.077 176.969 389.077 177.11C389.077 177.263 389.048 177.397 388.992 177.513C388.936 177.628 388.851 177.719 388.736 177.785C388.622 177.85 388.478 177.883 388.304 177.883H387.174ZM387.663 177.429H388.254C388.319 177.429 388.377 177.416 388.428 177.389C388.479 177.36 388.518 177.321 388.547 177.272C388.576 177.221 388.591 177.161 388.591 177.093C388.591 177.032 388.579 176.979 388.554 176.931C388.529 176.884 388.491 176.847 388.44 176.82C388.391 176.791 388.329 176.777 388.254 176.777H387.663V177.429ZM387.663 176.327H388.187C388.241 176.327 388.29 176.318 388.332 176.299C388.375 176.28 388.409 176.251 388.433 176.212C388.458 176.172 388.471 176.121 388.471 176.058C388.471 175.98 388.446 175.914 388.398 175.861C388.35 175.808 388.279 175.782 388.187 175.782H387.663V176.327Z" fill="#8379B1"/>
<g filter="url(#filter7_d_81_18085)">
<ellipse cx="194.864" cy="310.804" rx="9.6215" ry="9.6215" fill="#1F2325"/>
</g>
<ellipse cx="221.297" cy="310.804" rx="4.81075" ry="4.81075" fill="#D8D9DC"/>
<ellipse cx="242.918" cy="310.804" rx="4.81075" ry="4.81075" fill="#A2DFFF"/>
<ellipse cx="168.432" cy="310.804" rx="4.81075" ry="4.81075" fill="#BEE0DA"/>
<ellipse cx="146.811" cy="310.804" rx="4.81075" ry="4.81075" fill="#EDD1D1"/>
<defs>
<filter id="filter0_d_81_18085" x="106.545" y="5.36863" width="176.909" height="283.663" filterUnits="userSpaceOnUse" color-interpolation-filters="sRGB">
<feFlood flood-opacity="0" result="BackgroundImageFix"/>
<feColorMatrix in="SourceAlpha" type="matrix" values="0 0 0 0 0 0 0 0 0 0 0 0 0 0 0 0 0 0 127 0" result="hardAlpha"/>
<feOffset/>
<feGaussianBlur stdDeviation="2.31563"/>
<feComposite in2="hardAlpha" operator="out"/>
<feColorMatrix type="matrix" values="0 0 0 0 0.384314 0 0 0 0 0.384314 0 0 0 0 0.388235 0 0 0 0.4 0"/>
<feBlend mode="normal" in2="BackgroundImageFix" result="effect1_dropShadow_81_18085"/>
<feBlend mode="normal" in="SourceGraphic" in2="effect1_dropShadow_81_18085" result="shape"/>
</filter>
<filter id="filter1_d_81_18085" x="176.115" y="62.8351" width="24.5565" height="30.3106" filterUnits="userSpaceOnUse" color-interpolation-filters="sRGB">
<feFlood flood-opacity="0" result="BackgroundImageFix"/>
<feColorMatrix in="SourceAlpha" type="matrix" values="0 0 0 0 0 0 0 0 0 0 0 0 0 0 0 0 0 0 127 0" result="hardAlpha"/>
<feOffset/>
<feGaussianBlur stdDeviation="1.70171"/>
<feComposite in2="hardAlpha" operator="out"/>
<feColorMatrix type="matrix" values="0 0 0 0 0 0 0 0 0 0 0 0 0 0 0 0 0 0 0.25 0"/>
<feBlend mode="normal" in2="BackgroundImageFix" result="effect1_dropShadow_81_18085"/>
<feBlend mode="normal" in="SourceGraphic" in2="effect1_dropShadow_81_18085" result="shape"/>
</filter>
<filter id="filter2_d_81_18085" x="193.416" y="61.5589" width="20.8492" height="24.6019" filterUnits="userSpaceOnUse" color-interpolation-filters="sRGB">
<feFlood flood-opacity="0" result="BackgroundImageFix"/>
<feColorMatrix in="SourceAlpha" type="matrix" values="0 0 0 0 0 0 0 0 0 0 0 0 0 0 0 0 0 0 127 0" result="hardAlpha"/>
<feOffset/>
<feGaussianBlur stdDeviation="1.70171"/>
<feComposite in2="hardAlpha" operator="out"/>
<feColorMatrix type="matrix" values="0 0 0 0 0 0 0 0 0 0 0 0 0 0 0 0 0 0 0.25 0"/>
<feBlend mode="normal" in2="BackgroundImageFix" result="effect1_dropShadow_81_18085"/>
<feBlend mode="normal" in="SourceGraphic" in2="effect1_dropShadow_81_18085" result="shape"/>
</filter>
<filter id="filter3_d_81_18085" x="56.4901" y="112.034" width="10.2253" height="12.6212" filterUnits="userSpaceOnUse" color-interpolation-filters="sRGB">
<feFlood flood-opacity="0" result="BackgroundImageFix"/>
<feColorMatrix in="SourceAlpha" type="matrix" values="0 0 0 0 0 0 0 0 0 0 0 0 0 0 0 0 0 0 127 0" result="hardAlpha"/>
<feOffset/>
<feGaussianBlur stdDeviation="0.708587"/>
<feComposite in2="hardAlpha" operator="out"/>
<feColorMatrix type="matrix" values="0 0 0 0 0 0 0 0 0 0 0 0 0 0 0 0 0 0 0.25 0"/>
<feBlend mode="normal" in2="BackgroundImageFix" result="effect1_dropShadow_81_18085"/>
<feBlend mode="normal" in="SourceGraphic" in2="effect1_dropShadow_81_18085" result="shape"/>
</filter>
<filter id="filter4_d_81_18085" x="63.694" y="111.502" width="8.68158" height="10.2441" filterUnits="userSpaceOnUse" color-interpolation-filters="sRGB">
<feFlood flood-opacity="0" result="BackgroundImageFix"/>
<feColorMatrix in="SourceAlpha" type="matrix" values="0 0 0 0 0 0 0 0 0 0 0 0 0 0 0 0 0 0 127 0" result="hardAlpha"/>
<feOffset/>
<feGaussianBlur stdDeviation="0.708587"/>
<feComposite in2="hardAlpha" operator="out"/>
<feColorMatrix type="matrix" values="0 0 0 0 0 0 0 0 0 0 0 0 0 0 0 0 0 0 0.25 0"/>
<feBlend mode="normal" in2="BackgroundImageFix" result="effect1_dropShadow_81_18085"/>
<feBlend mode="normal" in="SourceGraphic" in2="effect1_dropShadow_81_18085" result="shape"/>
</filter>
<filter id="filter5_d_81_18085" x="317.506" y="112.034" width="10.2252" height="12.6212" filterUnits="userSpaceOnUse" color-interpolation-filters="sRGB">
<feFlood flood-opacity="0" result="BackgroundImageFix"/>
<feColorMatrix in="SourceAlpha" type="matrix" values="0 0 0 0 0 0 0 0 0 0 0 0 0 0 0 0 0 0 127 0" result="hardAlpha"/>
<feOffset/>
<feGaussianBlur stdDeviation="0.708587"/>
<feComposite in2="hardAlpha" operator="out"/>
<feColorMatrix type="matrix" values="0 0 0 0 0 0 0 0 0 0 0 0 0 0 0 0 0 0 0.25 0"/>
<feBlend mode="normal" in2="BackgroundImageFix" result="effect1_dropShadow_81_18085"/>
<feBlend mode="normal" in="SourceGraphic" in2="effect1_dropShadow_81_18085" result="shape"/>
</filter>
<filter id="filter6_d_81_18085" x="324.709" y="111.502" width="8.68152" height="10.2441" filterUnits="userSpaceOnUse" color-interpolation-filters="sRGB">
<feFlood flood-opacity="0" result="BackgroundImageFix"/>
<feColorMatrix in="SourceAlpha" type="matrix" values="0 0 0 0 0 0 0 0 0 0 0 0 0 0 0 0 0 0 127 0" result="hardAlpha"/>
<feOffset/>
<feGaussianBlur stdDeviation="0.708587"/>
<feComposite in2="hardAlpha" operator="out"/>
<feColorMatrix type="matrix" values="0 0 0 0 0 0 0 0 0 0 0 0 0 0 0 0 0 0 0.25 0"/>
<feBlend mode="normal" in2="BackgroundImageFix" result="effect1_dropShadow_81_18085"/>
<feBlend mode="normal" in="SourceGraphic" in2="effect1_dropShadow_81_18085" result="shape"/>
</filter>
<filter id="filter7_d_81_18085" x="181.243" y="297.183" width="27.243" height="27.243" filterUnits="userSpaceOnUse" color-interpolation-filters="sRGB">
<feFlood flood-opacity="0" result="BackgroundImageFix"/>
<feColorMatrix in="SourceAlpha" type="matrix" values="0 0 0 0 0 0 0 0 0 0 0 0 0 0 0 0 0 0 127 0" result="hardAlpha"/>
<feOffset/>
<feGaussianBlur stdDeviation="2"/>
<feComposite in2="hardAlpha" operator="out"/>
<feColorMatrix type="matrix" values="0 0 0 0 0.895833 0 0 0 0 0.895833 0 0 0 0 0.895833 0 0 0 0.2 0"/>
<feBlend mode="normal" in2="BackgroundImageFix" result="effect1_dropShadow_81_18085"/>
<feBlend mode="normal" in="SourceGraphic" in2="effect1_dropShadow_81_18085" result="shape"/>
</filter>
<linearGradient id="paint0_linear_81_18085" x1="177.414" y1="55.9644" x2="215.78" y2="95.2651" gradientUnits="userSpaceOnUse">
<stop stop-color="#D760C7"/>
<stop offset="0.510417" stop-color="#8998F2"/>
<stop offset="1" stop-color="#3DD8D0"/>
</linearGradient>
<linearGradient id="paint1_linear_81_18085" x1="57.0308" y1="109.173" x2="73.0062" y2="125.538" gradientUnits="userSpaceOnUse">
<stop stop-color="#D760C7"/>
<stop offset="0.510417" stop-color="#8998F2"/>
<stop offset="1" stop-color="#3DD8D0"/>
</linearGradient>
<linearGradient id="paint2_linear_81_18085" x1="318.046" y1="109.173" x2="334.022" y2="125.538" gradientUnits="userSpaceOnUse">
<stop stop-color="#D760C7"/>
<stop offset="0.510417" stop-color="#8998F2"/>
<stop offset="1" stop-color="#3DD8D0"/>
</linearGradient>
<clipPath id="clip0_81_18085">
<rect width="22.6894" height="22.6894" fill="white" transform="matrix(0 -1 1 0 122.523 270.579)"/>
</clipPath>
<clipPath id="clip1_81_18085">
<rect width="9.44783" height="9.44783" fill="white" transform="matrix(0 1 -1 0 55.5751 189.202)"/>
</clipPath>
<clipPath id="clip2_81_18085">
<rect width="9.44783" height="9.44783" fill="white" transform="matrix(0 -1 1 0 34.3133 198.705)"/>
</clipPath>
<clipPath id="clip3_81_18085">
<rect width="9.44783" height="9.44783" fill="white" transform="matrix(0 1 -1 0 316.59 189.202)"/>
</clipPath>
<clipPath id="clip4_81_18085">
<rect width="9.44783" height="9.44783" fill="white" transform="matrix(0 -1 1 0 295.328 198.705)"/>
</clipPath>
<clipPath id="clip5_81_18085">
<rect width="9.44783" height="9.44783" fill="white" transform="matrix(0 -1 1 0 376.917 198.705)"/>
</clipPath>
</defs>
</svg>
