<svg width="41" height="40" viewBox="0 0 41 40" fill="none" xmlns="http://www.w3.org/2000/svg">
<path d="M35.0601 20C35.0601 20.3315 34.9284 20.6495 34.6939 20.8839C34.4595 21.1183 34.1416 21.25 33.8101 21.25H6.31006C5.97854 21.25 5.6606 21.1183 5.42618 20.8839C5.19175 20.6495 5.06006 20.3315 5.06006 20C5.06006 19.6685 5.19175 19.3505 5.42618 19.1161C5.6606 18.8817 5.97854 18.75 6.31006 18.75H33.8101C34.1416 18.75 34.4595 18.8817 34.6939 19.1161C34.9284 19.3505 35.0601 19.6685 35.0601 20ZM6.31006 11.25H33.8101C34.1416 11.25 34.4595 11.1183 34.6939 10.8839C34.9284 10.6495 35.0601 10.3315 35.0601 10C35.0601 9.66848 34.9284 9.35054 34.6939 9.11612C34.4595 8.8817 34.1416 8.75 33.8101 8.75H6.31006C5.97854 8.75 5.6606 8.8817 5.42618 9.11612C5.19175 9.35054 5.06006 9.66848 5.06006 10C5.06006 10.3315 5.19175 10.6495 5.42618 10.8839C5.6606 11.1183 5.97854 11.25 6.31006 11.25ZM33.8101 28.75H6.31006C5.97854 28.75 5.6606 28.8817 5.42618 29.1161C5.19175 29.3505 5.06006 29.6685 5.06006 30C5.06006 30.3315 5.19175 30.6495 5.42618 30.8839C5.6606 31.1183 5.97854 31.25 6.31006 31.25H33.8101C34.1416 31.25 34.4595 31.1183 34.6939 30.8839C34.9284 30.6495 35.0601 30.3315 35.0601 30C35.0601 29.6685 34.9284 29.3505 34.6939 29.1161C34.4595 28.8817 34.1416 28.75 33.8101 28.75Z" fill="black"/>
</svg>
